<?xml version="1.0" standalone="no"?>
  <!DOCTYPE svg PUBLIC "-//W3C//DTD SVG 1.1//EN" "http://www.w3.org/Graphics/SVG/1.1/DTD/svg11.dtd" >
  <svg>
  <metadata>
  Created by font-carrier
  </metadata>
  <defs>
  <font id="FranklinGothic-DemiCond" horiz-adv-x="2155" vert-adv-y="2155" >
    <font-face
      
      font-family="Franklin Gothic Demi Cond"
      
      font-weight="400"
      
      font-stretch="normal"
      
      units-per-em="2048"
      
      ascent="1877"
      
      descent="-445"
      
    />
      <missing-glyph />

      

      
      <glyph glyph-name="uni21" unicode="&#x21;" d="M169 1365L529 1365L440 407L257 407L169 1365M209 302L488 302L488 0L209 0L209 302Z"  horiz-adv-x="698" vert-adv-y="2048"  />

      
      <glyph glyph-name="uni22" unicode="&#x22;" d="M200 1365L464 1365L426 765L239 765L200 1365M584 1365L848 1365L810 765L622 765L584 1365Z"  horiz-adv-x="1047" vert-adv-y="2048"  />

      
      <glyph glyph-name="uni23" unicode="&#x23;" d="M347 1365L524 1365L464 970L666 970L726 1365L903 1365L843 970L1027 970L1002 805L818 805L785 586L969 586L944 419L760 419L696 0L520 0L583 419L380 419L317 0L140 0L204 419L20 419L45 586L229 586L262 805L78 805L103 970L287 970L347 1365M439 805L406 586L608 586L641 805L439 805Z"  horiz-adv-x="1047" vert-adv-y="2048"  />

      
      <glyph glyph-name="uni24" unicode="&#x24;" d="M447 1479L601 1479L601 1337Q859 1306 935 1045L723 958Q661 1137 531 1137Q466 1137 426.50 1097Q387 1057 387 1000Q387 942 425 911Q463 880 588 834Q725 784 803 739.50Q881 695 927.50 616.50Q974 538 974 433Q974 272 878 164.50Q782 57 601 38L601-146L447-146L447 37Q145 68 73 388L311 450Q344 249 530 249Q617 249 658 292Q699 335 699 396Q699 459 658 491.50Q617 524 476 574Q349 618 277.50 661Q206 704 161.50 781.50Q117 859 117 962Q117 1097 196.50 1205Q276 1313 447 1337L447 1479Z"  horiz-adv-x="1047" vert-adv-y="2048"  />

      
      <glyph glyph-name="uni25" unicode="&#x25;" d="M596 1021Q596 850 524 760Q452 670 326 670Q201 670 128.50 758Q56 846 56 1021Q56 1193 127.50 1282.50Q199 1372 326 1372Q453 1372 524.50 1282Q596 1192 596 1021M401 1021Q401 1149 381.50 1185Q362 1221 326 1221Q286 1221 268 1181Q250 1141 250 1021Q250 893 269.50 857Q289 821 326 821Q366 821 383.50 862.50Q401 904 401 1021M928 1365L1082 1365L438 0L283 0L928 1365M1305 344Q1305 172 1233 82.50Q1161-7 1035-7Q909-7 837 83Q765 173 765 344Q765 516 837.50 605.50Q910 695 1035 695Q1159 695 1232 607Q1305 519 1305 344M1111 344Q1111 472 1091.50 508Q1072 544 1035 544Q995 544 977.50 503Q960 462 960 344Q960 217 979.50 180.50Q999 144 1035 144Q1076 144 1093.50 185.50Q1111 227 1111 344Z"  horiz-adv-x="1361" vert-adv-y="2048"  />

      
      <glyph glyph-name="uni26" unicode="&#x26;" d="M1046 781L1269 741Q1214 499 1083 304Q1154 230 1222 230Q1231 230 1269 232L1269 0Q1213-14 1165-14Q1023-14 900 115Q733-21 529-21Q303-21 198.50 100Q94 221 94 382Q94 645 404 776Q277 950 277 1082Q277 1205 377.50 1295.50Q478 1386 637 1386Q798 1386 892.50 1292Q987 1198 987 1060Q987 854 751 732L940 481Q1005 587 1046 781M635 888Q758 957 758 1076Q758 1124 731.50 1157.50Q705 1191 652 1191Q601 1191 573 1161Q545 1131 545 1084Q545 1011 635 888M518 618Q379 534 379 400Q379 314 430 259Q481 204 574 204Q683 204 765 284L518 618Z"  horiz-adv-x="1326" vert-adv-y="2048"  />

      
      <glyph glyph-name="uni27" unicode="&#x27;" d="M217 1365L481 1365L443 765L256 765L217 1365Z"  horiz-adv-x="698" vert-adv-y="2048"  />

      
      <glyph glyph-name="uni28" unicode="&#x28;" d="M351 1365L571 1365Q363 978 363 512Q363 46 571-342L351-342Q103 27 103 512Q103 998 351 1365Z"  horiz-adv-x="698" vert-adv-y="2048"  />

      
      <glyph glyph-name="uni29" unicode="&#x29;" d="M347-342L126-342Q222-170 278 61.50Q334 293 334 512Q334 730 278 961.50Q222 1193 126 1365L347 1365Q594 995 594 512Q594 29 347-342Z"  horiz-adv-x="698" vert-adv-y="2048"  />

      
      <glyph glyph-name="uni2a" unicode="&#x2a;" d="M437 1365L608 1365L584 1114L791 1254L874 1101L651 1002L874 904L791 751L584 891L608 640L437 640L462 891L255 751L172 904L395 1002L172 1101L255 1254L462 1114L437 1365Z"  horiz-adv-x="1047" vert-adv-y="2048"  />

      
      <glyph glyph-name="uni2b" unicode="&#x2b;" d="M636 791L942 791L942 574L636 574L636 264L411 264L411 574L105 574L105 791L411 791L411 1101L636 1101L636 791Z"  horiz-adv-x="1047" vert-adv-y="2048"  />

      
      <glyph glyph-name="uni2c" unicode="&#x2c;" d="M122 302L401 302L401 27L232-323L122-323L253 0L122 0L122 302Z"  horiz-adv-x="523" vert-adv-y="2048"  />

      
      <glyph glyph-name="uni2d" unicode="&#x2d;" d="M76 628L483 628L483 407L76 407L76 628Z"  horiz-adv-x="558" vert-adv-y="2048"  />

      
      <glyph glyph-name="uni2e" unicode="&#x2e;" d="M122 302L401 302L401 0L122 0L122 302Z"  horiz-adv-x="523" vert-adv-y="2048"  />

      
      <glyph glyph-name="uni2f" unicode="&#x2f;" d="M792 1365L982 1365L150-342L-40-342L792 1365Z"  horiz-adv-x="1081" vert-adv-y="2048"  />

      
      <glyph glyph-name="uni30" unicode="&#x30;" d="M979 699Q979 329 872.50 154Q766-21 523-21Q272-21 169.50 160.50Q67 342 67 665Q67 1037 173.50 1211.50Q280 1386 523 1386Q774 1386 876.50 1204.50Q979 1023 979 699M662 683Q662 993 634 1080.50Q606 1168 523 1168Q448 1168 415.50 1094Q383 1020 383 683Q383 350 414.50 274Q446 198 523 198Q597 198 629.50 269.50Q662 341 662 683Z"  horiz-adv-x="1047" vert-adv-y="2048"  />

      
      <glyph glyph-name="uni31" unicode="&#x31;" d="M505 1377L734 1377L734 223L960 223L960 0L204 0L204 223L434 223L434 1029Q332 923 204 858L204 1125Q387 1221 505 1377Z"  horiz-adv-x="1047" vert-adv-y="2048"  />

      
      <glyph glyph-name="uni32" unicode="&#x32;" d="M330 884L57 939Q124 1386 509 1386Q717 1386 825.50 1270.50Q934 1155 934 988Q934 816 814 651.50Q694 487 363 267L953 267L931 0L57 0L57 267Q432 588 525 720.50Q618 853 618 972Q618 1142 490 1142Q413 1142 377.50 1075Q342 1008 330 884Z"  horiz-adv-x="1047" vert-adv-y="2048"  />

      
      <glyph glyph-name="uni33" unicode="&#x33;" d="M325 986L64 1035Q167 1386 514 1386Q704 1386 810.50 1287.50Q917 1189 917 1020Q917 804 714 716Q944 643 944 391Q944 189 818 84Q692-21 497-21Q322-21 193 71Q64 163 33 383L298 427Q318 223 476 223Q549 223 592 272Q635 321 635 412Q635 598 425 598L342 597L342 818L425 818Q492 818 530 830.50Q568 843 593.50 883Q619 923 619 988Q619 1154 482 1154Q362 1154 325 986Z"  horiz-adv-x="1047" vert-adv-y="2048"  />

      
      <glyph glyph-name="uni34" unicode="&#x34;" d="M516 1386L842 1386L842 554L995 554L995 321L842 321L842 0L542 0L542 321L51 321L51 554L516 1386M566 538L566 1100L263 538L566 538Z"  horiz-adv-x="1047" vert-adv-y="2048"  />

      
      <glyph glyph-name="uni35" unicode="&#x35;" d="M177 1365L907 1365L878 1098L396 1098L379 790Q464 907 612 907Q758 907 868.50 800Q979 693 979 460Q979 222 852 100.50Q725-21 521-21Q331-21 209 84Q87 189 69 365L342 410Q365 223 519 223Q688 223 688 444Q688 542 643 602.50Q598 663 514 663Q404 663 364 557L129 602L177 1365Z"  horiz-adv-x="1047" vert-adv-y="2048"  />

      
      <glyph glyph-name="uni36" unicode="&#x36;" d="M981 1023L738 950Q705 1168 567 1168Q481 1168 433 1079.50Q385 991 382 706Q466 861 632 861Q783 861 886 746.50Q989 632 989 433Q989 210 868 94.50Q747-21 558-21Q105-21 105 665Q105 1036 230 1211Q355 1386 576 1386Q737 1386 842 1294.50Q947 1203 981 1023M698 433Q698 642 550 642Q395 642 395 413Q395 304 436.50 250.50Q478 197 546 197Q698 197 698 433Z"  horiz-adv-x="1047" vert-adv-y="2048"  />

      
      <glyph glyph-name="uni37" unicode="&#x37;" d="M141 1365L952 1365L952 1135Q626 714 621 0L295 0Q303 625 695 1098L118 1098L141 1365Z"  horiz-adv-x="1047" vert-adv-y="2048"  />

      
      <glyph glyph-name="uni38" unicode="&#x38;" d="M775 745Q986 621 986 391Q986 219 865 99Q744-21 509-21Q283-21 171.50 84Q60 189 60 355Q60 454 106.50 529.50Q153 605 283 673Q99 789 99 994Q99 1154 207 1270Q315 1386 534 1386Q742 1386 845.50 1289.50Q949 1193 949 1037Q949 846 775 745M594 835Q691 927 691 1023Q691 1098 651.50 1144.50Q612 1191 539 1191Q469 1191 425 1149Q381 1107 381 1042Q381 964 450.50 915Q520 866 594 835M456 575Q325 495 325 375Q325 289 377 237.50Q429 186 520 186Q605 186 655 233Q705 280 705 345Q705 398 663.50 450Q622 502 456 575Z"  horiz-adv-x="1047" vert-adv-y="2048"  />

      
      <glyph glyph-name="uni39" unicode="&#x39;" d="M89 312L350 363Q376 197 496 197Q664 197 664 586L663 628Q583 505 425 505Q247 505 152.50 640.50Q58 776 58 941Q58 1123 166 1254.50Q274 1386 490 1386Q680 1386 778 1284.50Q876 1183 909.50 1026.50Q943 870 943 706Q943-21 484-21Q165-21 89 312M652 958Q652 1058 610 1113Q568 1168 496 1168Q435 1168 391.50 1116Q348 1064 348 959Q348 749 500 749Q652 749 652 958Z"  horiz-adv-x="1047" vert-adv-y="2048"  />

      
      <glyph glyph-name="uni3a" unicode="&#x3a;" d="M122 1010L401 1010L401 707L122 708L122 1010M122 302L401 302L401 0L122 0L122 302Z"  horiz-adv-x="523" vert-adv-y="2048"  />

      
      <glyph glyph-name="uni3b" unicode="&#x3b;" d="M122 1010L401 1010L401 707L122 708L122 1010M122 302L401 302L401 27L232-323L122-323L253 0L122 0L122 302Z"  horiz-adv-x="523" vert-adv-y="2048"  />

      
      <glyph glyph-name="uni037E" unicode="&#x037E;" d="M122 1010L401 1010L401 707L122 708L122 1010M122 302L401 302L401 27L232-323L122-323L253 0L122 0L122 302Z"  horiz-adv-x="523" vert-adv-y="2048"  />

      
      <glyph glyph-name="uni3c" unicode="&#x3c;" d="M967 1276L967 972L403 682L966 391L967 89L80 555L80 811L967 1276Z"  horiz-adv-x="1047" vert-adv-y="2048"  />

      
      <glyph glyph-name="uni3d" unicode="&#x3d;" d="M942 742L105 742L105 958L942 958L942 742M942 407L105 407L105 623L942 623L942 407Z"  horiz-adv-x="1047" vert-adv-y="2048"  />

      
      <glyph glyph-name="uni3e" unicode="&#x3e;" d="M80 89L80 393L644 683L82 974L80 1276L967 810L967 554L80 89Z"  horiz-adv-x="1047" vert-adv-y="2048"  />

      
      <glyph glyph-name="uni3f" unicode="&#x3f;" d="M315 896L59 932Q63 1135 171 1260.50Q279 1386 478 1386Q688 1386 784 1271Q880 1156 880 1003Q880 884 834 803.50Q788 723 679 626Q602 557 585.50 521.50Q569 486 569 391L329 391L329 436Q329 561 342.50 615.50Q356 670 446 758Q521 831 549.50 883.50Q578 936 578 1009Q578 1076 543 1109Q508 1142 461 1142Q316 1142 315 896M315 291L583 291L583 0L315 0L315 291Z"  horiz-adv-x="977" vert-adv-y="2048"  />

      
      <glyph glyph-name="uni40" unicode="&#x40;" d="M814 1040L952 1040L894 622Q883 541 883 502Q883 431 928 431Q989 431 1038.50 531.50Q1088 632 1088 776Q1088 1003 982 1131.50Q876 1260 679 1260Q477 1260 346 1105.50Q215 951 215 683Q215 427 341.50 269Q468 111 702 111Q895 111 1057 221L1112 88Q914-40 693-40Q398-40 218 155.50Q38 351 38 677Q38 995 214.50 1202.50Q391 1410 679 1410Q954 1410 1104.50 1237.50Q1255 1065 1255 797Q1255 569 1146.50 422.50Q1038 276 901 276Q784 276 750 392Q688 274 574 274Q482 274 422.50 366Q363 458 363 613Q363 800 447.50 927Q532 1054 653 1054Q753 1054 801 949L814 1040M734 732Q734 868 664 868Q615 868 582 799.50Q549 731 549 615Q549 460 626 460Q734 460 734 732Z"  horiz-adv-x="1291" vert-adv-y="2048"  />

      
      <glyph glyph-name="uni41" unicode="&#x41;" d="M370 1365L672 1365L1062 0L755 0L687 282L303 282L236 0L-40 0L370 1365M630 516L493 1073L360 516L630 516Z"  horiz-adv-x="1047" vert-adv-y="2048"  />

      
      <glyph glyph-name="uni42" unicode="&#x42;" d="M129 1365L595 1365Q759 1365 842.50 1339Q926 1313 982.50 1225Q1039 1137 1039 1006Q1039 777 844 712Q1076 630 1076 377Q1076 244 1013 152.50Q950 61 857.50 30.50Q765 0 595 0L129 0L129 1365M417 814L514 814Q659 814 696.50 866Q734 918 734 985Q734 1047 696.50 1095.50Q659 1144 536 1144L417 1144L417 814M417 235L564 235Q771 235 771 413Q771 512 719.50 552.50Q668 593 564 593L417 593L417 235Z"  horiz-adv-x="1151" vert-adv-y="2048"  />

      
      <glyph glyph-name="uni43" unicode="&#x43;" d="M793 497L1070 480Q1055 258 929 118.50Q803-21 596-21Q344-21 212 166Q80 353 80 681Q80 1012 211 1199Q342 1386 600 1386Q1027 1386 1065 858L791 838Q780 1142 601 1142Q507 1142 451.50 1044Q396 946 396 664Q396 412 447 317.50Q498 223 600 223Q764 223 793 497Z"  horiz-adv-x="1117" vert-adv-y="2048"  />

      
      <glyph glyph-name="uni44" unicode="&#x44;" d="M129 1365L452 1365Q662 1365 793.50 1308.50Q925 1252 1004 1100Q1083 948 1083 689Q1083 505 1035 362.50Q987 220 909 138Q831 56 733 28Q635 0 488 0L129 0L129 1365M429 1131L429 235L480 235Q584 235 641 275Q698 315 732 414.50Q766 514 766 702Q766 876 728.50 970Q691 1064 634.50 1097.50Q578 1131 480 1131L429 1131Z"  horiz-adv-x="1151" vert-adv-y="2048"  />

      
      <glyph glyph-name="uni45" unicode="&#x45;" d="M129 1365L959 1365L959 1131L429 1131L429 814L841 814L841 579L429 579L429 244L959 244L959 0L129 0L129 1365Z"  horiz-adv-x="977" vert-adv-y="2048"  />

      
      <glyph glyph-name="uni46" unicode="&#x46;" d="M129 1365L939 1365L939 1131L429 1131L429 774L822 774L822 540L429 540L429 0L129 0L129 1365Z"  horiz-adv-x="907" vert-adv-y="2048"  />

      
      <glyph glyph-name="uni47" unicode="&#x47;" d="M608 728L1082 728L1082 0L955 0L916 156Q806-21 586-21Q353-21 216.50 162.50Q80 346 80 656Q80 993 214.50 1189.50Q349 1386 612 1386Q1031 1386 1082 918L812 874Q784 1142 618 1142Q517 1142 456.50 1043Q396 944 396 668Q396 423 455 323Q514 223 628 223Q811 223 812 493L608 493L608 728Z"  horiz-adv-x="1187" vert-adv-y="2048"  />

      
      <glyph glyph-name="uni48" unicode="&#x48;" d="M129 1365L429 1365L429 814L757 814L757 1365L1057 1365L1057 0L757 0L757 558L429 558L429 0L129 0L129 1365Z"  horiz-adv-x="1186" vert-adv-y="2048"  />

      
      <glyph glyph-name="uni49" unicode="&#x49;" d="M129 1365L429 1365L429 0L129 0L129 1365Z"  horiz-adv-x="558" vert-adv-y="2048"  />

      
      <glyph glyph-name="uni4a" unicode="&#x4a;" d="M241 1365L541 1365L541 459Q541 286 515.50 189.50Q490 93 410 36Q330-21 173-21Q105-21-10 0L-10 251Q62 237 111 237Q190 237 215.50 279.50Q241 322 241 459L241 1365Z"  horiz-adv-x="663" vert-adv-y="2048"  />

      
      <glyph glyph-name="uni4b" unicode="&#x4b;" d="M129 1365L429 1365L429 796L761 1365L1064 1365L722 863L1093 0L783 0L543 629L429 464L429 0L129 0L129 1365Z"  horiz-adv-x="1081" vert-adv-y="2048"  />

      
      <glyph glyph-name="uni4c" unicode="&#x4c;" d="M129 1365L429 1365L429 256L869 256L869 0L129 0L129 1365Z"  horiz-adv-x="872" vert-adv-y="2048"  />

      
      <glyph glyph-name="uni4d" unicode="&#x4d;" d="M129 1365L569 1365L762 522L979 1365L1406 1365L1406 0L1125 0L1125 1143L846 0L628 0L373 1143L373 0L129 0L129 1365Z"  horiz-adv-x="1535" vert-adv-y="2048"  />

      
      <glyph glyph-name="uni4e" unicode="&#x4e;" d="M118 1365L451 1365L802 517L802 1365L1034 1365L1034 0L766 0L350 988L350 0L118 0L118 1365Z"  horiz-adv-x="1151" vert-adv-y="2048"  />

      
      <glyph glyph-name="uni4f" unicode="&#x4f;" d="M1071 683Q1071-21 576-21Q330-21 205 158.50Q80 338 80 683Q80 1386 575 1386Q817 1386 944 1210Q1071 1034 1071 683M755 683Q755 959 712 1050.50Q669 1142 575 1142Q482 1142 439 1050Q396 958 396 683Q396 413 438.50 318Q481 223 575 223Q668 223 711.50 314Q755 405 755 683Z"  horiz-adv-x="1151" vert-adv-y="2048"  />

      
      <glyph glyph-name="uni50" unicode="&#x50;" d="M129 1365L522 1365Q701 1365 799.50 1335Q898 1305 965 1199.50Q1032 1094 1032 938Q1032 788 978 690Q924 592 828.50 548.50Q733 505 535 505L429 505L429 0L129 0L129 1365M429 1144L429 740L522 740Q645 740 680.50 797Q716 854 716 945Q716 1022 688.50 1069.50Q661 1117 624.50 1130.50Q588 1144 522 1144L429 1144Z"  horiz-adv-x="1047" vert-adv-y="2048"  />

      
      <glyph glyph-name="uni51" unicode="&#x51;" d="M1021-48L1021-264Q956-282 893-282Q637-282 621-19Q584-21 564-21Q343-21 211.50 148.50Q80 318 80 683Q80 1386 575 1386Q820 1386 945.50 1208Q1071 1030 1071 695Q1071 454 1015.50 291.50Q960 129 821 39Q822-20 846-41.50Q870-63 919-63Q965-63 1021-48M755 683Q755 959 712 1050.50Q669 1142 575 1142Q482 1142 439 1050Q396 958 396 683Q396 413 438.50 318Q481 223 575 223Q668 223 711.50 314Q755 405 755 683Z"  horiz-adv-x="1151" vert-adv-y="2048"  />

      
      <glyph glyph-name="uni52" unicode="&#x52;" d="M129 1365L558 1365Q683 1365 749.50 1353.50Q816 1342 884 1291.50Q952 1241 990.50 1153.50Q1029 1066 1029 957Q1029 701 837 597L1088 0L761 0L579 540L429 540L429 0L129 0L129 1365M429 1144L429 761L561 761Q737 761 737 958Q737 1026 711 1069.50Q685 1113 650.50 1128.50Q616 1144 549 1144L429 1144Z"  horiz-adv-x="1116" vert-adv-y="2048"  />

      
      <glyph glyph-name="uni53" unicode="&#x53;" d="M964 1068L716 973Q663 1142 522 1142Q456 1142 417.50 1104.50Q379 1067 379 1017Q379 959 424.50 924.50Q470 890 615 834Q747 785 822.50 737Q898 689 944.50 606.50Q991 524 991 415Q991 224 859.50 101.50Q728-21 507-21Q136-21 33 354L295 429Q343 223 514 223Q592 223 640.50 263.50Q689 304 689 370Q689 420 655 459.50Q621 499 499 543Q342 599 265 644.50Q188 690 138 774.50Q88 859 88 967Q88 1151 206.50 1268.50Q325 1386 520 1386Q876 1386 964 1068Z"  horiz-adv-x="1047" vert-adv-y="2048"  />

      
      <glyph glyph-name="uni54" unicode="&#x54;" d="M-24 1365L827 1365L827 1109L548 1109L548 0L248 0L248 1109L-24 1109L-24 1365Z"  horiz-adv-x="802" vert-adv-y="2048"  />

      
      <glyph glyph-name="uni55" unicode="&#x55;" d="M129 1365L429 1365L429 585Q429 420 444 355Q459 290 506.50 256.50Q554 223 623 223Q698 223 742 260Q786 297 796 358Q806 419 806 585L806 1365L1057 1365L1057 597Q1057 367 1030.50 254Q1004 141 895.50 60Q787-21 597-21Q419-21 317 38.50Q215 98 172 205.50Q129 313 129 585L129 1365Z"  horiz-adv-x="1186" vert-adv-y="2048"  />

      
      <glyph glyph-name="uni56" unicode="&#x56;" d="M-28 1365L287 1365L497 325L714 1365L971 1365L636-7L300 0L-28 1365Z"  horiz-adv-x="942" vert-adv-y="2048"  />

      
      <glyph glyph-name="uni57" unicode="&#x57;" d="M-11 1365L296 1365L439 420L618 1365L893 1365L1061 418L1228 1365L1481 1365L1188-7L919-7L737 942L551-7L285-7L-11 1365Z"  horiz-adv-x="1465" vert-adv-y="2048"  />

      
      <glyph glyph-name="uni58" unicode="&#x58;" d="M10 1365L344 1365L507 1010L679 1365L966 1365L644 748L1008 0L679 0L480 446L256 0L-31 0L344 700L10 1365Z"  horiz-adv-x="977" vert-adv-y="2048"  />

      
      <glyph glyph-name="uni59" unicode="&#x59;" d="M-58 1365L272 1365L465 867L671 1365L964 1365L585 577L585 0L285 0L285 577L-58 1365Z"  horiz-adv-x="907" vert-adv-y="2048"  />

      
      <glyph glyph-name="uni5a" unicode="&#x5a;" d="M44 1365L921 1365L921 1152L350 244L939 244L939 0L2 0L2 209L577 1121L44 1121L44 1365Z"  horiz-adv-x="942" vert-adv-y="2048"  />

      
      <glyph glyph-name="uni5b" unicode="&#x5b;" d="M150 1365L571 1365L571 1237L399 1237L399-214L571-214L571-342L150-342L150 1365Z"  horiz-adv-x="698" vert-adv-y="2048"  />

      
      <glyph glyph-name="uni5c" unicode="&#x5c;" d="M289 1365L1121-342L932-342L99 1365L289 1365Z"  horiz-adv-x="1082" vert-adv-y="2048"  />

      
      <glyph glyph-name="uni5d" unicode="&#x5d;" d="M548-342L127-342L127-214L299-214L299 1237L127 1237L127 1365L548 1365L548-342Z"  horiz-adv-x="698" vert-adv-y="2048"  />

      
      <glyph glyph-name="uni5e" unicode="&#x5e;" d="M301 718L31 718L342 1373L681 1373L992 718L722 718L512 1167L301 718Z"  horiz-adv-x="1024" vert-adv-y="2048"  />

      
      <glyph glyph-name="uni5f" unicode="&#x5f;" d="M0-116L1024-116L1024-298L0-298L0-116Z"  horiz-adv-x="1024" vert-adv-y="2048"  />

      
      <glyph glyph-name="uni60" unicode="&#x60;" d="M651 1203L567 1119L198 1350L310 1517L651 1203Z"  horiz-adv-x="942" vert-adv-y="2048"  />

      
      <glyph glyph-name="uni61" unicode="&#x61;" d="M374 689L107 715Q126 867 236.50 949Q347 1031 515 1031Q657 1031 743 976.50Q829 922 851.50 850Q874 778 874 627L874 224Q874 36 891 0L630 0Q616 41 616 155Q523-21 339-21Q221-21 147 49.50Q73 120 73 255Q73 424 185 516.50Q297 609 593 627L593 665Q593 766 572.50 805Q552 844 493 844Q385 844 374 689M593 483Q470 469 417.50 428.50Q365 388 365 292Q365 164 459 164Q510 164 551.50 221.50Q593 279 593 433L593 483Z"  horiz-adv-x="977" vert-adv-y="2048"  />

      
      <glyph glyph-name="uni62" unicode="&#x62;" d="M104 1365L381 1365L381 915Q463 1024 591 1024Q731 1024 824 898Q917 772 917 511Q917 260 826 119.50Q735-21 560-21Q388-21 324 132Q295 80 271 0L104 0L104 1365M381 419Q381 280 407 227Q433 174 499 174Q572 174 599 249.50Q626 325 626 504Q626 677 600 757Q574 837 504 837Q381 837 381 652L381 419Z"  horiz-adv-x="977" vert-adv-y="2048"  />

      
      <glyph glyph-name="uni63" unicode="&#x63;" d="M858 638L596 628Q590 721 566 768.50Q542 816 485 816Q343 816 343 518Q343 345 377.50 276Q412 207 480 207Q586 207 596 394L858 377Q823-21 462-21Q267-21 163.50 110.50Q60 242 60 502Q60 760 168.50 895Q277 1030 473 1030Q827 1030 858 638Z"  horiz-adv-x="907" vert-adv-y="2048"  />

      
      <glyph glyph-name="uni64" unicode="&#x64;" d="M598 1365L875 1365L875 0L614 0L614 167Q550-14 384-14Q221-14 141 128Q61 270 61 501Q61 764 152.50 894Q244 1024 397 1024Q538 1024 598 916L598 1365M598 587Q598 736 566.50 786.50Q535 837 475 837Q404 837 378.50 767Q353 697 353 477Q353 313 381 247Q409 181 473 181Q527 181 562.50 225.50Q598 270 598 408L598 587Z"  horiz-adv-x="977" vert-adv-y="2048"  />

      
      <glyph glyph-name="uni65" unicode="&#x65;" d="M881 458L351 458L351 402Q351 266 388 220Q425 174 485 174Q614 174 630 347L881 331Q814-21 480-21Q274-21 167 118Q60 257 60 490Q60 753 173.50 891.50Q287 1030 478 1030Q650 1030 765.50 907.50Q881 785 881 458M615 621Q616 639 616 649Q616 844 484 844Q354 844 353 621L615 621Z"  horiz-adv-x="942" vert-adv-y="2048"  />

      
      <glyph glyph-name="uni66" unicode="&#x66;" d="M422 1010L600 1010L600 788L422 788L422 0L152 0L152 788L37 788L37 1010L152 1010Q153 1159 175 1233Q197 1307 270 1363Q343 1419 469 1419Q543 1419 611 1409L611 1189Q577 1193 548 1193Q467 1193 444.50 1158.50Q422 1124 422 1010Z"  horiz-adv-x="593" vert-adv-y="2048"  />

      
      <glyph glyph-name="uni67" unicode="&#x67;" d="M963 1176L963 992Q931 1000 902 1000Q814 1000 795 909Q870 830 870 707Q870 570 768 487.50Q666 405 504 405Q442 405 373 422Q307 386 307 339Q307 301 344 289Q381 277 546 268Q698 259 773.50 238Q849 217 899.50 152Q950 87 950-19Q950-357 457-357Q43-357 43-116Q43 17 208 72Q76 134 76 247Q76 377 250 469Q100 543 100 721Q100 872 203.50 951Q307 1030 480 1030Q595 1030 696 986Q707 1094 750 1140Q793 1186 885 1186Q929 1186 963 1176M579 716Q579 879 490 879Q436 879 413.50 839.50Q391 800 391 709Q391 556 488 556Q537 556 558 592Q579 628 579 716M364 44Q275 3 275-78Q275-180 507-180Q706-180 706-74Q706-35 684.50-10.50Q663 14 629.50 20.50Q596 27 489 32Q426 36 364 44Z"  horiz-adv-x="942" vert-adv-y="2048"  />

      
      <glyph glyph-name="uni68" unicode="&#x68;" d="M104 1365L386 1365L386 903Q462 1031 634 1031Q737 1031 796.50 983Q856 935 872 861.50Q888 788 888 648L888 0L606 0L606 648Q606 747 587.50 779.50Q569 812 511 812Q454 812 420 781Q386 750 386 640L386 0L104 0L104 1365Z"  horiz-adv-x="977" vert-adv-y="2048"  />

      
      <glyph glyph-name="uni69" unicode="&#x69;" d="M387 1093L101 1093L101 1372L387 1372L387 1093M103 1010L385 1010L385 0L103 0L103 1010Z"  horiz-adv-x="488" vert-adv-y="2048"  />

      
      <glyph glyph-name="uni6a" unicode="&#x6a;" d="M397 1093L111 1093L111 1372L397 1372L397 1093M113 1010L395 1010L395 33Q395-123 378-201Q361-279 297-324.50Q233-370 134-370Q71-370-17-356L-17-125Q4-128 20-128Q82-128 97.50-97Q113-66 113 41L113 1010Z"  horiz-adv-x="488" vert-adv-y="2048"  />

      
      <glyph glyph-name="uni6b" unicode="&#x6b;" d="M104 1365L386 1365L386 620L670 1010L926 1010L671 671L951 0L647 0L489 469L386 327L386 0L104 0L104 1365Z"  horiz-adv-x="942" vert-adv-y="2048"  />

      
      <glyph glyph-name="uni6c" unicode="&#x6c;" d="M103 1365L385 1365L385 0L103 0L103 1365Z"  horiz-adv-x="488" vert-adv-y="2048"  />

      
      <glyph glyph-name="uni6d" unicode="&#x6d;" d="M104 1010L371 1010L371 872Q443 1030 616 1030Q796 1030 834 872Q902 1030 1079 1030Q1178 1030 1236.50 994Q1295 958 1318 895.50Q1341 833 1341 660L1341 0L1060 0L1060 631Q1060 744 1044 778Q1028 812 973 812Q907 812 887 767.50Q867 723 867 588L867 0L585 0L585 640Q585 748 569.50 780Q554 812 499 812Q431 812 408.50 765.50Q386 719 386 588L386 0L104 0L104 1010Z"  horiz-adv-x="1430" vert-adv-y="2048"  />

      
      <glyph glyph-name="uni6e" unicode="&#x6e;" d="M104 1010L371 1010L371 872Q441 1030 624 1030Q723 1030 787.50 985.50Q852 941 870 872Q888 803 888 662L888 0L606 0L606 662Q606 764 580 788Q554 812 510 812Q434 812 410 765.50Q386 719 386 592L386 0L104 0L104 1010Z"  horiz-adv-x="977" vert-adv-y="2048"  />

      
      <glyph glyph-name="uni6f" unicode="&#x6f;" d="M882 505Q882-21 472-21Q61-21 61 505Q61 1030 472 1030Q882 1030 882 505M591 505Q591 698 564.50 766Q538 834 472 834Q408 834 380 769.50Q352 705 352 505Q352 320 376 248Q400 176 472 176Q541 176 566 247.50Q591 319 591 505Z"  horiz-adv-x="942" vert-adv-y="2048"  />

      
      <glyph glyph-name="uni70" unicode="&#x70;" d="M104 1010L364 1010L364 859Q447 1023 594 1023Q733 1023 825 899.50Q917 776 917 522Q917 256 827 121Q737-14 574-14Q457-14 381 75L381-342L104-342L104 1010M381 413Q381 268 404.50 224.50Q428 181 500 181Q564 181 595 239Q626 297 626 520Q626 706 599 772Q572 838 508 838Q455 838 418 796.50Q381 755 381 604L381 413Z"  horiz-adv-x="977" vert-adv-y="2048"  />

      
      <glyph glyph-name="uni71" unicode="&#x71;" d="M719 1010L874 1010Q865 935 865 752L865-342L588-342L588 105Q509-14 381-14Q238-14 149.50 118.50Q61 251 61 489Q61 775 154.50 899.50Q248 1024 402 1024Q553 1024 642 879Q687 929 719 1010M588 608Q588 748 558.50 793Q529 838 469 838Q400 838 375.50 782.50Q351 727 351 529Q351 307 377 244Q403 181 470 181Q525 181 556.50 232.50Q588 284 588 459L588 608Z"  horiz-adv-x="977" vert-adv-y="2048"  />

      
      <glyph glyph-name="uni72" unicode="&#x72;" d="M104 1010L352 1010L352 766Q419 1023 591 1023Q612 1023 639 1018L639 743Q608 747 592 747Q386 747 386 435L386 0L104 0L104 1010Z"  horiz-adv-x="628" vert-adv-y="2048"  />

      
      <glyph glyph-name="uni73" unicode="&#x73;" d="M770 767L569 707Q529 844 421 844Q333 844 333 756Q333 706 366 680Q399 654 502 618Q618 577 672 546Q726 515 763 452.50Q800 390 800 309Q800 169 699 74Q598-21 417-21Q76-21 39 280L263 316Q291 165 422 165Q534 165 534 259Q534 309 501 335Q468 361 373 391Q199 447 134 526Q69 605 69 709Q69 855 171.50 943Q274 1031 428 1031Q697 1031 770 767Z"  horiz-adv-x="837" vert-adv-y="2048"  />

      
      <glyph glyph-name="uni74" unicode="&#x74;" d="M146 1320L420 1329L420 1010L606 1010L606 788L420 788L420 417Q420 314 424.50 283.50Q429 253 454.50 232.50Q480 212 540 212Q572 212 620 214L620 0Q526-21 448-21Q320-21 252 28Q184 77 165 151Q146 225 146 386L146 788L34 788L34 1010L146 1010L146 1320Z"  horiz-adv-x="628" vert-adv-y="2048"  />

      
      <glyph glyph-name="uni75" unicode="&#x75;" d="M90 1010L372 1010L372 362Q372 264 390 231Q408 198 468 198Q523 198 551.50 225Q580 252 586 299.50Q592 347 592 495L592 1010L874 1010L874 0L609 0L609 138Q549 35 489.50 7Q430-21 349-21Q240-21 182 24Q124 69 107 138Q90 207 90 353L90 1010Z"  horiz-adv-x="977" vert-adv-y="2048"  />

      
      <glyph glyph-name="uni76" unicode="&#x76;" d="M-22 1010L249 1010L388 413L529 1010L763 1010L486 0L263 0L-22 1010Z"  horiz-adv-x="733" vert-adv-y="2048"  />

      
      <glyph glyph-name="uni77" unicode="&#x77;" d="M-17 1010L257 1010L376 396L489 1010L763 1010L855 396L991 1010L1212 1010L959 0L723 0L593 687L466 0L237 0L-17 1010Z"  horiz-adv-x="1186" vert-adv-y="2048"  />

      
      <glyph glyph-name="uni78" unicode="&#x78;" d="M-11 1010L295 1010L402 776L532 1010L777 1010L516 564L817 0L512 0L364 302L195 0L-50 0L249 517L-11 1010Z"  horiz-adv-x="768" vert-adv-y="2048"  />

      
      <glyph glyph-name="uni79" unicode="&#x79;" d="M-28 1010L254 1010L390 393L521 1010L764 1010L460-16Q416-163 385-222Q354-281 292-319.50Q230-358 134-358Q75-358 14-342L14-120Q56-126 93-126Q175-126 205.50-99Q236-72 263 19L-28 1010Z"  horiz-adv-x="733" vert-adv-y="2048"  />

      
      <glyph glyph-name="uni7a" unicode="&#x7a;" d="M76 1010L706 1010L706 829L331 200L716 200L716 0L41 0L41 200L407 810L76 810L76 1010Z"  horiz-adv-x="733" vert-adv-y="2048"  />

      
      <glyph glyph-name="uni7b" unicode="&#x7b;" d="M546 1363L546 1229Q473 1227 453.50 1199.50Q434 1172 434 1053L434 830Q434 648 416 603.50Q398 559 314 525Q397 492 415.50 447Q434 402 434 220L434-30Q434-148 453-175Q472-202 546-206L546-340Q476-342 453-342Q360-342 313.50-328.50Q267-315 227.50-256.50Q188-198 188-30L188 322Q187 391 168.50 415Q150 439 88 442L88 609Q158 611 173 639.50Q188 668 188 821L188 1053Q188 1250 245.50 1308Q303 1366 452 1366Q482 1366 546 1363Z"  horiz-adv-x="698" vert-adv-y="2048"  />

      
      <glyph glyph-name="uni7c" unicode="&#x7c;" d="M358 1365L665 1365L665-341L358-341L358 1365Z"  horiz-adv-x="1024" vert-adv-y="2048"  />

      
      <glyph glyph-name="uni7d" unicode="&#x7d;" d="M151-340L151-206Q225-202 244-175.50Q263-149 263-30L263 220Q263 402 281 446.50Q299 491 383 525Q300 558 281.50 603Q263 648 263 830L263 1053Q263 1171 244 1199Q225 1227 151 1229L151 1363Q221 1366 243 1366Q362 1366 407 1342Q452 1318 480.50 1259Q509 1200 509 1053L509 821L510 729Q510 659 528.50 635Q547 611 609 609L609 442Q557 441 536 422Q515 403 512 374Q509 345 509 229L509-30Q509-165 484-229Q459-293 407-317.50Q355-342 246-342Q217-342 151-340Z"  horiz-adv-x="698" vert-adv-y="2048"  />

      
      <glyph glyph-name="uni7e" unicode="&#x7e;" d="M339 1131L190 1255Q302 1534 495 1534Q564 1534 726 1464Q846 1412 883 1412Q966 1412 1031 1539L1180 1415Q1075 1141 859 1141Q797 1141 632 1213Q529 1258 482 1258Q404 1258 339 1131Z"  horiz-adv-x="1365" vert-adv-y="2048"  />

      
      <glyph glyph-name="unic4" unicode="&#xc4;" d="M370 1365L672 1365L1062 0L755 0L687 282L303 282L236 0L-40 0L370 1365M630 516L493 1073L360 516L630 516M572 1601Q572 1646 605.50 1677.50Q639 1709 686 1709Q734 1709 767 1677.50Q800 1646 800 1601Q800 1553 764 1523.50Q728 1494 686 1494Q643 1494 607.50 1524Q572 1554 572 1601M234 1601Q234 1646 267.50 1677.50Q301 1709 348 1709Q395 1709 428.50 1677.50Q462 1646 462 1601Q462 1554 426.50 1524Q391 1494 348 1494Q307 1494 270.50 1523Q234 1552 234 1601Z"  horiz-adv-x="1047" vert-adv-y="2048"  />

      
      <glyph glyph-name="unic5" unicode="&#xc5;" d="M370 1365L672 1365L1062 0L755 0L687 282L303 282L236 0L-40 0L370 1365M630 516L493 1073L360 516L630 516M330 1644Q330 1727 388 1783Q446 1839 523 1839Q600 1839 658 1783.50Q716 1728 716 1644Q716 1558 655.50 1505Q595 1452 523 1452Q451 1452 390.50 1505.50Q330 1559 330 1644M446 1645Q446 1609 470.50 1586.50Q495 1564 523 1564Q552 1564 576 1586.50Q600 1609 600 1645Q600 1680 576.50 1703.50Q553 1727 523 1727Q493 1727 469.50 1703.50Q446 1680 446 1645Z"  horiz-adv-x="1047" vert-adv-y="2048"  />

      
      <glyph glyph-name="unic7" unicode="&#xc7;" d="M635-271Q635-235 604.50-211Q574-187 517-187L454-188L515-16Q80 63 80 681Q80 1012 211 1199Q342 1386 600 1386Q1027 1386 1065 858L791 838Q780 1142 601 1142Q507 1142 451.50 1044Q396 946 396 664Q396 412 447 317.50Q498 223 600 223Q764 223 793 497L1070 480Q1058 284 948 141Q838-2 628-21L601-105Q627-102 641-102Q714-102 761.50-147.50Q809-193 809-266Q809-343 753-392.50Q697-442 597-442Q487-442 370-368L404-277Q502-329 570-329Q635-329 635-271Z"  horiz-adv-x="1117" vert-adv-y="2048"  />

      
      <glyph glyph-name="unic9" unicode="&#xc9;" d="M129 1365L959 1365L959 1131L429 1131L429 814L841 814L841 579L429 579L429 244L959 244L959 0L129 0L129 1365M383 1554L724 1868L836 1701L467 1470L383 1554Z"  horiz-adv-x="977" vert-adv-y="2048"  />

      
      <glyph glyph-name="unid1" unicode="&#xd1;" d="M118 1365L451 1365L802 517L802 1365L1034 1365L1034 0L766 0L350 988L350 0L118 0L118 1365M831 1704L920 1638Q818 1485 691 1485Q643 1485 565 1520Q477 1559 443 1559Q404 1559 348 1496L262 1563Q373 1706 481 1706Q531 1706 613 1671Q703 1632 735 1632Q780 1632 831 1704Z"  horiz-adv-x="1151" vert-adv-y="2048"  />

      
      <glyph glyph-name="unid6" unicode="&#xd6;" d="M1071 683Q1071-21 576-21Q330-21 205 158.50Q80 338 80 683Q80 1386 575 1386Q817 1386 944 1210Q1071 1034 1071 683M755 683Q755 959 712 1050.50Q669 1142 575 1142Q482 1142 439 1050Q396 958 396 683Q396 413 438.50 318Q481 223 575 223Q668 223 711.50 314Q755 405 755 683M638 1601Q638 1646 671.50 1677.50Q705 1709 752 1709Q800 1709 833 1677.50Q866 1646 866 1601Q866 1553 830 1523.50Q794 1494 752 1494Q709 1494 673.50 1524Q638 1554 638 1601M300 1601Q300 1646 333.50 1677.50Q367 1709 414 1709Q461 1709 494.50 1677.50Q528 1646 528 1601Q528 1554 492.50 1524Q457 1494 414 1494Q373 1494 336.50 1523Q300 1552 300 1601Z"  horiz-adv-x="1151" vert-adv-y="2048"  />

      
      <glyph glyph-name="unidc" unicode="&#xdc;" d="M129 1365L429 1365L429 585Q429 420 444 355Q459 290 506.50 256.50Q554 223 623 223Q698 223 742 260Q786 297 796 358Q806 419 806 585L806 1365L1057 1365L1057 597Q1057 367 1030.50 254Q1004 141 895.50 60Q787-21 597-21Q419-21 317 38.50Q215 98 172 205.50Q129 313 129 585L129 1365M655 1601Q655 1646 688.50 1677.50Q722 1709 769 1709Q817 1709 850 1677.50Q883 1646 883 1601Q883 1553 847 1523.50Q811 1494 769 1494Q726 1494 690.50 1524Q655 1554 655 1601M317 1601Q317 1646 350.50 1677.50Q384 1709 431 1709Q478 1709 511.50 1677.50Q545 1646 545 1601Q545 1554 509.50 1524Q474 1494 431 1494Q390 1494 353.50 1523Q317 1552 317 1601Z"  horiz-adv-x="1186" vert-adv-y="2048"  />

      
      <glyph glyph-name="unie1" unicode="&#xe1;" d="M374 689L107 715Q126 867 236.50 949Q347 1031 515 1031Q657 1031 743 976.50Q829 922 851.50 850Q874 778 874 627L874 224Q874 36 891 0L630 0Q616 41 616 155Q523-21 339-21Q221-21 147 49.50Q73 120 73 255Q73 424 185 516.50Q297 609 593 627L593 665Q593 766 572.50 805Q552 844 493 844Q385 844 374 689M593 483Q470 469 417.50 428.50Q365 388 365 292Q365 164 459 164Q510 164 551.50 221.50Q593 279 593 433L593 483M364 1203L705 1517L817 1350L448 1119L364 1203Z"  horiz-adv-x="977" vert-adv-y="2048"  />

      
      <glyph glyph-name="unie0" unicode="&#xe0;" d="M374 689L107 715Q126 867 236.50 949Q347 1031 515 1031Q657 1031 743 976.50Q829 922 851.50 850Q874 778 874 627L874 224Q874 36 891 0L630 0Q616 41 616 155Q523-21 339-21Q221-21 147 49.50Q73 120 73 255Q73 424 185 516.50Q297 609 593 627L593 665Q593 766 572.50 805Q552 844 493 844Q385 844 374 689M593 483Q470 469 417.50 428.50Q365 388 365 292Q365 164 459 164Q510 164 551.50 221.50Q593 279 593 433L593 483M670 1203L586 1119L217 1350L329 1517L670 1203Z"  horiz-adv-x="977" vert-adv-y="2048"  />

      
      <glyph glyph-name="unie2" unicode="&#xe2;" d="M374 689L107 715Q126 867 236.50 949Q347 1031 515 1031Q657 1031 743 976.50Q829 922 851.50 850Q874 778 874 627L874 224Q874 36 891 0L630 0Q616 41 616 155Q523-21 339-21Q221-21 147 49.50Q73 120 73 255Q73 424 185 516.50Q297 609 593 627L593 665Q593 766 572.50 805Q552 844 493 844Q385 844 374 689M593 483Q470 469 417.50 428.50Q365 388 365 292Q365 164 459 164Q510 164 551.50 221.50Q593 279 593 433L593 483M56 1132L457 1445L858 1132L640 1132L457 1250L274 1132L56 1132Z"  horiz-adv-x="977" vert-adv-y="2048"  />

      
      <glyph glyph-name="unie4" unicode="&#xe4;" d="M374 689L107 715Q126 867 236.50 949Q347 1031 515 1031Q657 1031 743 976.50Q829 922 851.50 850Q874 778 874 627L874 224Q874 36 891 0L630 0Q616 41 616 155Q523-21 339-21Q221-21 147 49.50Q73 120 73 255Q73 424 185 516.50Q297 609 593 627L593 665Q593 766 572.50 805Q552 844 493 844Q385 844 374 689M593 483Q470 469 417.50 428.50Q365 388 365 292Q365 164 459 164Q510 164 551.50 221.50Q593 279 593 433L593 483M565 1269Q565 1314 598.50 1345.50Q632 1377 679 1377Q727 1377 760 1345.50Q793 1314 793 1269Q793 1221 757 1191.50Q721 1162 679 1162Q636 1162 600.50 1192Q565 1222 565 1269M227 1269Q227 1314 260.50 1345.50Q294 1377 341 1377Q388 1377 421.50 1345.50Q455 1314 455 1269Q455 1222 419.50 1192Q384 1162 341 1162Q300 1162 263.50 1191Q227 1220 227 1269Z"  horiz-adv-x="977" vert-adv-y="2048"  />

      
      <glyph glyph-name="unie3" unicode="&#xe3;" d="M374 689L107 715Q126 867 236.50 949Q347 1031 515 1031Q657 1031 743 976.50Q829 922 851.50 850Q874 778 874 627L874 224Q874 36 891 0L630 0Q616 41 616 155Q523-21 339-21Q221-21 147 49.50Q73 120 73 255Q73 424 185 516.50Q297 609 593 627L593 665Q593 766 572.50 805Q552 844 493 844Q385 844 374 689M593 483Q470 469 417.50 428.50Q365 388 365 292Q365 164 459 164Q510 164 551.50 221.50Q593 279 593 433L593 483M750 1385L839 1319Q737 1166 610 1166Q562 1166 484 1201Q396 1240 362 1240Q323 1240 267 1177L181 1244Q292 1387 400 1387Q450 1387 532 1352Q622 1313 654 1313Q699 1313 750 1385Z"  horiz-adv-x="977" vert-adv-y="2048"  />

      
      <glyph glyph-name="unie5" unicode="&#xe5;" d="M374 689L107 715Q126 867 236.50 949Q347 1031 515 1031Q657 1031 743 976.50Q829 922 851.50 850Q874 778 874 627L874 224Q874 36 891 0L630 0Q616 41 616 155Q523-21 339-21Q221-21 147 49.50Q73 120 73 255Q73 424 185 516.50Q297 609 593 627L593 665Q593 766 572.50 805Q552 844 493 844Q385 844 374 689M593 483Q470 469 417.50 428.50Q365 388 365 292Q365 164 459 164Q510 164 551.50 221.50Q593 279 593 433L593 483M320 1301Q320 1384 378 1440Q436 1496 513 1496Q590 1496 648 1440.50Q706 1385 706 1301Q706 1215 645.50 1162Q585 1109 513 1109Q441 1109 380.50 1162.50Q320 1216 320 1301M436 1302Q436 1266 460.50 1243.50Q485 1221 513 1221Q542 1221 566 1243.50Q590 1266 590 1302Q590 1337 566.50 1360.50Q543 1384 513 1384Q483 1384 459.50 1360.50Q436 1337 436 1302Z"  horiz-adv-x="977" vert-adv-y="2048"  />

      
      <glyph glyph-name="unie7" unicode="&#xe7;" d="M858 638L596 628Q590 721 566 768.50Q542 816 485 816Q343 816 343 518Q343 345 377.50 276Q412 207 480 207Q586 207 596 394L858 377Q824 13 506-20L474-102Q500-99 514-99Q584-99 630.50-143Q677-187 677-258Q677-334 622-381.50Q567-429 470-429Q364-429 250-357L284-269Q380-324 446-324Q517-324 517-263Q517-225 483.50-201Q450-177 400-177Q374-177 333-182L393-17Q60 37 60 502Q60 760 168.50 895Q277 1030 473 1030Q827 1030 858 638Z"  horiz-adv-x="907" vert-adv-y="2048"  />

      
      <glyph glyph-name="unie9" unicode="&#xe9;" d="M881 458L351 458L351 402Q351 266 388 220Q425 174 485 174Q614 174 630 347L881 331Q814-21 480-21Q274-21 167 118Q60 257 60 490Q60 753 173.50 891.50Q287 1030 478 1030Q650 1030 765.50 907.50Q881 785 881 458M615 621Q616 639 616 649Q616 844 484 844Q354 844 353 621L615 621M338 1203L679 1517L791 1350L422 1119L338 1203Z"  horiz-adv-x="942" vert-adv-y="2048"  />

      
      <glyph glyph-name="unie8" unicode="&#xe8;" d="M881 458L351 458L351 402Q351 266 388 220Q425 174 485 174Q614 174 630 347L881 331Q814-21 480-21Q274-21 167 118Q60 257 60 490Q60 753 173.50 891.50Q287 1030 478 1030Q650 1030 765.50 907.50Q881 785 881 458M615 621Q616 639 616 649Q616 844 484 844Q354 844 353 621L615 621M651 1203L567 1119L198 1350L310 1517L651 1203Z"  horiz-adv-x="942" vert-adv-y="2048"  />

      
      <glyph glyph-name="uniea" unicode="&#xea;" d="M881 458L351 458L351 402Q351 266 388 220Q425 174 485 174Q614 174 630 347L881 331Q814-21 480-21Q274-21 167 118Q60 257 60 490Q60 753 173.50 891.50Q287 1030 478 1030Q650 1030 765.50 907.50Q881 785 881 458M615 621Q616 639 616 649Q616 844 484 844Q354 844 353 621L615 621M90 1132L491 1445L892 1132L674 1132L491 1250L308 1132L90 1132Z"  horiz-adv-x="942" vert-adv-y="2048"  />

      
      <glyph glyph-name="unieb" unicode="&#xeb;" d="M881 458L351 458L351 402Q351 266 388 220Q425 174 485 174Q614 174 630 347L881 331Q814-21 480-21Q274-21 167 118Q60 257 60 490Q60 753 173.50 891.50Q287 1030 478 1030Q650 1030 765.50 907.50Q881 785 881 458M615 621Q616 639 616 649Q616 844 484 844Q354 844 353 621L615 621M546 1269Q546 1314 579.50 1345.50Q613 1377 660 1377Q708 1377 741 1345.50Q774 1314 774 1269Q774 1221 738 1191.50Q702 1162 660 1162Q617 1162 581.50 1192Q546 1222 546 1269M208 1269Q208 1314 241.50 1345.50Q275 1377 322 1377Q369 1377 402.50 1345.50Q436 1314 436 1269Q436 1222 400.50 1192Q365 1162 322 1162Q281 1162 244.50 1191Q208 1220 208 1269Z"  horiz-adv-x="942" vert-adv-y="2048"  />

      
      <glyph glyph-name="unied" unicode="&#xed;" d="M103 1010L385 1010L385 0L103 0L103 1010M85 1203L426 1517L538 1350L169 1119L85 1203Z"  horiz-adv-x="488" vert-adv-y="2048"  />

      
      <glyph glyph-name="uniec" unicode="&#xec;" d="M103 1010L385 1010L385 0L103 0L103 1010M404 1203L320 1119L-49 1350L63 1517L404 1203Z"  horiz-adv-x="488" vert-adv-y="2048"  />

      
      <glyph glyph-name="uniee" unicode="&#xee;" d="M103 1010L385 1010L385 0L103 0L103 1010M-157 1132L244 1445L645 1132L427 1132L244 1250L61 1132L-157 1132Z"  horiz-adv-x="488" vert-adv-y="2048"  />

      
      <glyph glyph-name="unief" unicode="&#xef;" d="M103 1010L385 1010L385 0L103 0L103 1010M299 1269Q299 1314 332.50 1345.50Q366 1377 413 1377Q461 1377 494 1345.50Q527 1314 527 1269Q527 1221 491 1191.50Q455 1162 413 1162Q370 1162 334.50 1192Q299 1222 299 1269M-39 1269Q-39 1314-5.50 1345.50Q28 1377 75 1377Q122 1377 155.50 1345.50Q189 1314 189 1269Q189 1222 153.50 1192Q118 1162 75 1162Q34 1162-2.50 1191Q-39 1220-39 1269Z"  horiz-adv-x="488" vert-adv-y="2048"  />

      
      <glyph glyph-name="unif1" unicode="&#xf1;" d="M104 1010L371 1010L371 872Q441 1030 624 1030Q723 1030 787.50 985.50Q852 941 870 872Q888 803 888 662L888 0L606 0L606 662Q606 764 580 788Q554 812 510 812Q434 812 410 765.50Q386 719 386 592L386 0L104 0L104 1010M722 1385L811 1319Q709 1166 582 1166Q534 1166 456 1201Q368 1240 334 1240Q295 1240 239 1177L153 1244Q264 1387 372 1387Q422 1387 504 1352Q594 1313 626 1313Q671 1313 722 1385Z"  horiz-adv-x="977" vert-adv-y="2048"  />

      
      <glyph glyph-name="unif3" unicode="&#xf3;" d="M882 505Q882-21 472-21Q61-21 61 505Q61 1030 472 1030Q882 1030 882 505M591 505Q591 698 564.50 766Q538 834 472 834Q408 834 380 769.50Q352 705 352 505Q352 320 376 248Q400 176 472 176Q541 176 566 247.50Q591 319 591 505M325 1203L666 1517L778 1350L409 1119L325 1203Z"  horiz-adv-x="942" vert-adv-y="2048"  />

      
      <glyph glyph-name="unif2" unicode="&#xf2;" d="M882 505Q882-21 472-21Q61-21 61 505Q61 1030 472 1030Q882 1030 882 505M591 505Q591 698 564.50 766Q538 834 472 834Q408 834 380 769.50Q352 705 352 505Q352 320 376 248Q400 176 472 176Q541 176 566 247.50Q591 319 591 505M638 1203L554 1119L185 1350L297 1517L638 1203Z"  horiz-adv-x="942" vert-adv-y="2048"  />

      
      <glyph glyph-name="unif4" unicode="&#xf4;" d="M882 505Q882-21 472-21Q61-21 61 505Q61 1030 472 1030Q882 1030 882 505M591 505Q591 698 564.50 766Q538 834 472 834Q408 834 380 769.50Q352 705 352 505Q352 320 376 248Q400 176 472 176Q541 176 566 247.50Q591 319 591 505M70 1132L471 1445L872 1132L654 1132L471 1250L288 1132L70 1132Z"  horiz-adv-x="942" vert-adv-y="2048"  />

      
      <glyph glyph-name="unif6" unicode="&#xf6;" d="M882 505Q882-21 472-21Q61-21 61 505Q61 1030 472 1030Q882 1030 882 505M591 505Q591 698 564.50 766Q538 834 472 834Q408 834 380 769.50Q352 705 352 505Q352 320 376 248Q400 176 472 176Q541 176 566 247.50Q591 319 591 505M526 1269Q526 1314 559.50 1345.50Q593 1377 640 1377Q688 1377 721 1345.50Q754 1314 754 1269Q754 1221 718 1191.50Q682 1162 640 1162Q597 1162 561.50 1192Q526 1222 526 1269M188 1269Q188 1314 221.50 1345.50Q255 1377 302 1377Q349 1377 382.50 1345.50Q416 1314 416 1269Q416 1222 380.50 1192Q345 1162 302 1162Q261 1162 224.50 1191Q188 1220 188 1269Z"  horiz-adv-x="942" vert-adv-y="2048"  />

      
      <glyph glyph-name="unif5" unicode="&#xf5;" d="M882 505Q882-21 472-21Q61-21 61 505Q61 1030 472 1030Q882 1030 882 505M591 505Q591 698 564.50 766Q538 834 472 834Q408 834 380 769.50Q352 705 352 505Q352 320 376 248Q400 176 472 176Q541 176 566 247.50Q591 319 591 505M711 1385L800 1319Q698 1166 571 1166Q523 1166 445 1201Q357 1240 323 1240Q284 1240 228 1177L142 1244Q253 1387 361 1387Q411 1387 493 1352Q583 1313 615 1313Q660 1313 711 1385Z"  horiz-adv-x="942" vert-adv-y="2048"  />

      
      <glyph glyph-name="unifa" unicode="&#xfa;" d="M90 1010L372 1010L372 362Q372 264 390 231Q408 198 468 198Q523 198 551.50 225Q580 252 586 299.50Q592 347 592 495L592 1010L874 1010L874 0L609 0L609 138Q549 35 489.50 7Q430-21 349-21Q240-21 182 24Q124 69 107 138Q90 207 90 353L90 1010M329 1203L670 1517L782 1350L413 1119L329 1203Z"  horiz-adv-x="977" vert-adv-y="2048"  />

      
      <glyph glyph-name="unif9" unicode="&#xf9;" d="M90 1010L372 1010L372 362Q372 264 390 231Q408 198 468 198Q523 198 551.50 225Q580 252 586 299.50Q592 347 592 495L592 1010L874 1010L874 0L609 0L609 138Q549 35 489.50 7Q430-21 349-21Q240-21 182 24Q124 69 107 138Q90 207 90 353L90 1010M642 1203L558 1119L189 1350L301 1517L642 1203Z"  horiz-adv-x="977" vert-adv-y="2048"  />

      
      <glyph glyph-name="unifb" unicode="&#xfb;" d="M90 1010L372 1010L372 362Q372 264 390 231Q408 198 468 198Q523 198 551.50 225Q580 252 586 299.50Q592 347 592 495L592 1010L874 1010L874 0L609 0L609 138Q549 35 489.50 7Q430-21 349-21Q240-21 182 24Q124 69 107 138Q90 207 90 353L90 1010M81 1132L482 1445L883 1132L665 1132L482 1250L299 1132L81 1132Z"  horiz-adv-x="977" vert-adv-y="2048"  />

      
      <glyph glyph-name="unifc" unicode="&#xfc;" d="M90 1010L372 1010L372 362Q372 264 390 231Q408 198 468 198Q523 198 551.50 225Q580 252 586 299.50Q592 347 592 495L592 1010L874 1010L874 0L609 0L609 138Q549 35 489.50 7Q430-21 349-21Q240-21 182 24Q124 69 107 138Q90 207 90 353L90 1010M537 1269Q537 1314 570.50 1345.50Q604 1377 651 1377Q699 1377 732 1345.50Q765 1314 765 1269Q765 1221 729 1191.50Q693 1162 651 1162Q608 1162 572.50 1192Q537 1222 537 1269M199 1269Q199 1314 232.50 1345.50Q266 1377 313 1377Q360 1377 393.50 1345.50Q427 1314 427 1269Q427 1222 391.50 1192Q356 1162 313 1162Q272 1162 235.50 1191Q199 1220 199 1269Z"  horiz-adv-x="977" vert-adv-y="2048"  />

      
      <glyph glyph-name="uni2020" unicode="&#x2020;" d="M388 1365L659 1365L659 999L942 999L942 764L659 764L659-342L388-342L388 764L105 764L105 999L388 999L388 1365Z"  horiz-adv-x="1047" vert-adv-y="2048"  />

      
      <glyph glyph-name="unib0" unicode="&#xb0;" d="M849 1061Q849 926 753 830.50Q657 735 524 735Q390 735 294 830.50Q198 926 198 1061Q198 1195 293.50 1290.50Q389 1386 524 1386Q659 1386 754 1290.50Q849 1195 849 1061M663 1061Q663 1127 623 1175Q583 1223 524 1223Q467 1223 425.50 1176Q384 1129 384 1061Q384 992 425.50 945Q467 898 524 898Q581 898 622 946Q663 994 663 1061Z"  horiz-adv-x="1047" vert-adv-y="2048"  />

      
      <glyph glyph-name="unia2" unicode="&#xa2;" d="M466 1372L613 1372L613 1187Q880 1151 911 823L675 808Q663 991 546 991Q478 991 448.50 928Q419 865 419 699Q419 527 449.50 469Q480 411 544 411Q591 411 626 443Q661 475 675 591L911 570Q866 239 613 202L613-14L466-14L466 202Q294 230 215.50 367Q137 504 137 683Q137 903 223 1040Q309 1177 466 1188L466 1372Z"  horiz-adv-x="1047" vert-adv-y="2048"  />

      
      <glyph glyph-name="unia3" unicode="&#xa3;" d="M556 835L785 835L785 626L584 626Q585 593 585 574Q585 432 542 360Q499 288 433 232L584 232Q738 232 794 288Q850 344 879 437L1100 354Q1075 244 1033.50 174.50Q992 105 932 66.50Q872 28 802.50 14Q733 0 584 0L17 0L17 232L122 232Q194 232 227.50 252Q261 272 286.50 336Q312 400 312 520Q312 569 306 626L149 626L149 835L271 835Q259 937 259 998Q259 1174 355.50 1280Q452 1386 632 1386Q910 1386 977 1128L760 1025Q728 1168 633 1168Q542 1168 542 1027Q542 994 550 904Q555 851 556 835Z"  horiz-adv-x="1047" vert-adv-y="2048"  />

      
      <glyph glyph-name="unia7" unicode="&#xa7;" d="M939 1130L730 1066Q696 1200 572 1200Q508 1200 475 1167.50Q442 1135 442 1087Q442 1034 475 1006Q508 978 640 917Q793 847 858.50 773Q924 699 924 571Q924 411 788 302Q935 201 935 20Q935-147 826-245.50Q717-344 526-344Q177-344 108-32L341 8Q372-149 531-149Q684-149 684-13Q684 54 634 94.50Q584 135 414 209Q319 251 267 287.50Q215 324 179.50 389.50Q144 455 144 538Q144 722 301 813Q190 907 190 1051Q190 1201 286.50 1293.50Q383 1386 559 1386Q858 1386 939 1130M435 729Q378 678 378 608Q378 554 412.50 515.50Q447 477 572 421Q625 398 645 388Q700 436 700 509Q700 562 666 595Q632 628 520 685Q454 718 435 729Z"  horiz-adv-x="1047" vert-adv-y="2048"  />

      
      <glyph glyph-name="uni2022" unicode="&#x2022;" d="M964 696Q964 578 881.50 494Q799 410 683 410Q567 410 484 494.50Q401 579 401 696Q401 814 483.50 898Q566 982 685 982Q799 982 881.50 898.50Q964 815 964 696Z"  horiz-adv-x="1365" vert-adv-y="2048"  />

      
      <glyph glyph-name="unib6" unicode="&#xb6;" d="M958 1365L958-342L798-342L798 1203L701 1203L701-342L541-342L541 528L470 528Q319 528 232.50 564Q146 600 94.50 698Q43 796 43 952Q43 1095 93.50 1191.50Q144 1288 222 1326.50Q300 1365 482 1365L958 1365Z"  horiz-adv-x="1117" vert-adv-y="2048"  />

      
      <glyph glyph-name="unidf" unicode="&#xdf;" d="M20 695L20 916L132 916Q132 1168 257 1307.50Q382 1447 613 1447Q791 1447 879 1360Q967 1273 967 1152Q967 922 662 826Q678 795 787 749Q973 669 1033 577Q1093 485 1093 364Q1093 187 986.50 83Q880-21 711-21Q601-21 487 21L555 212Q637 174 706 174Q841 174 841 309Q841 373 807 411Q773 449 676 507Q570 571 523 629.50Q476 688 476 767Q476 840 513 936Q704 964 704 1108Q704 1173 667.50 1212Q631 1251 567 1251Q509 1251 471.50 1215Q434 1179 423.50 1122.50Q413 1066 413 925L413-118L132-118L132 695L20 695Z"  horiz-adv-x="1116" vert-adv-y="2048"  />

      
      <glyph glyph-name="uniae" unicode="&#xae;" d="M82 683Q82 974 292.50 1182Q503 1390 797 1390Q1092 1390 1302.50 1182Q1513 974 1513 683Q1513 391 1302.50 183Q1092-25 797-25Q502-25 292 183Q82 391 82 683M257 683Q257 455 415.50 294.50Q574 134 797 134Q1020 134 1179 295.50Q1338 457 1338 683Q1338 910 1179.50 1070.50Q1021 1231 797 1231Q575 1231 416 1070Q257 909 257 683M505 1092L777 1092Q880 1092 942.50 1074.50Q1005 1057 1051 995Q1097 933 1097 843Q1097 690 975 629L1127 273L885 273L781 588L727 588L727 273L505 273L505 1092M727 941L727 739L778 739Q879 739 879 844Q879 941 771 941L727 941Z"  horiz-adv-x="1595" vert-adv-y="2048"  />

      
      <glyph glyph-name="unia9" unicode="&#xa9;" d="M82 683Q82 974 292.50 1182Q503 1390 797 1390Q1092 1390 1302.50 1182Q1513 974 1513 683Q1513 391 1302.50 183Q1092-25 797-25Q502-25 292 183Q82 391 82 683M257 683Q257 455 415.50 294.50Q574 134 797 134Q1020 134 1179 295.50Q1338 457 1338 683Q1338 910 1179.50 1070.50Q1021 1231 797 1231Q575 1231 416 1070Q257 909 257 683M931 586L1138 574Q1130 434 1043.50 347.50Q957 261 815 261Q654 261 560 367.50Q466 474 466 676Q466 882 555.50 993Q645 1104 818 1104Q1110 1104 1134 775L929 761Q922 940 818 940Q699 940 699 672Q699 532 728 478.50Q757 425 818 425Q914 425 931 586Z"  horiz-adv-x="1595" vert-adv-y="2048"  />

      
      <glyph glyph-name="uni2122" unicode="&#x2122;" d="M27 1324L538 1324L538 1179L370 1179L370 546L190 546L190 1179L27 1179L27 1324M600 1324L869 1324L980 847L1106 1324L1367 1324L1367 546L1198 546L1198 1194L1030 546L900 546L747 1194L747 546L600 546L600 1324Z"  horiz-adv-x="1500" vert-adv-y="2048"  />

      
      <glyph glyph-name="unib4" unicode="&#xb4;" d="M372 1203L713 1517L825 1350L456 1119L372 1203Z"  horiz-adv-x="942" vert-adv-y="2048"  />

      
      <glyph glyph-name="unia8" unicode="&#xa8;" d="M526 1269Q526 1314 559.50 1345.50Q593 1377 640 1377Q688 1377 721 1345.50Q754 1314 754 1269Q754 1221 718 1191.50Q682 1162 640 1162Q597 1162 561.50 1192Q526 1222 526 1269M188 1269Q188 1314 221.50 1345.50Q255 1377 302 1377Q349 1377 382.50 1345.50Q416 1314 416 1269Q416 1222 380.50 1192Q345 1162 302 1162Q261 1162 224.50 1191Q188 1220 188 1269Z"  horiz-adv-x="942" vert-adv-y="2048"  />

      
      <glyph glyph-name="uni2260" unicode="&#x2260;" d="M771 958L942 958L942 742L671 742L615 623L942 623L942 407L514 407L410 183L214 275L276 407L105 407L105 623L377 623L432 742L105 742L105 958L533 958L637 1182L833 1091L771 958Z"  horiz-adv-x="1047" vert-adv-y="2048"  />

      
      <glyph glyph-name="unic6" unicode="&#xc6;" d="M454 1365L1378 1365L1378 1131L873 1131L873 814L1271 814L1271 579L873 579L873 244L1378 244L1378 0L585 0L585 316L287 316L177 0L-82 0L454 1365M592 537L592 1165L363 537L592 537Z"  horiz-adv-x="1396" vert-adv-y="2048"  />

      
      <glyph glyph-name="unid8" unicode="&#xd8;" d="M883 1444L1040 1444L930 1227Q1071 1054 1071 683Q1071-21 575-21Q451-21 337 34L275-84L118-84L225 131Q80 312 80 683Q80 1386 575 1386Q716 1386 821 1325L883 1444M698 1107Q648 1159 575 1159Q476 1159 422 1069.50Q368 980 368 683Q368 526 383 435L698 1107M457 244Q505 204 584 204Q692 204 737.50 315.50Q783 427 783 727Q783 823 769 920L457 244Z"  horiz-adv-x="1151" vert-adv-y="2048"  />

      
      <glyph glyph-name="uni221E" unicode="&#x221E;" d="M679 856Q813 1084 1002 1084Q1131 1084 1220 992Q1309 900 1309 735Q1309 570 1220 478Q1131 386 1002 386Q813 386 679 615Q630 540 549.50 491.50Q469 443 392 443Q285 443 217.50 526.50Q150 610 150 735Q150 861 217 944.50Q284 1028 392 1028Q469 1028 549.50 979Q630 930 679 856M772 737Q866 589 911 561.50Q956 534 1005 534Q1084 534 1123.50 596Q1163 658 1163 739Q1163 820 1122.50 879Q1082 938 1008 938Q896 938 772 737M593 739Q493 880 403 880Q357 880 323.50 842.50Q290 805 290 740Q290 682 319.50 639Q349 596 403 596Q483 596 593 739Z"  horiz-adv-x="1460" vert-adv-y="2048"  />

      
      <glyph glyph-name="unib1" unicode="&#xb1;" d="M636 791L942 791L942 574L636 574L636 287L411 287L411 574L105 574L105 791L411 791L411 1101L636 1101L636 791M942-23L105-23L105 193L942 193L942-23Z"  horiz-adv-x="1047" vert-adv-y="2048"  />

      
      <glyph glyph-name="uni2264" unicode="&#x2264;" d="M967 1308L967 1023L413 843L966 665L967 380L80 716L80 972L967 1308M967 325L967 57L80 57L80 325L967 325Z"  horiz-adv-x="1047" vert-adv-y="2048"  />

      
      <glyph glyph-name="uni2265" unicode="&#x2265;" d="M80 380L81 665L635 843L80 1023L80 1308L967 972L967 716L80 380M80 57L80 325L967 325L967 57L80 57Z"  horiz-adv-x="1047" vert-adv-y="2048"  />

      
      <glyph glyph-name="unia5" unicode="&#xa5;" d="M49 1365L340 1365L544 810L763 1365L998 1365L773 833L978 833L978 684L709 684L657 561L978 561L978 412L657 412L657 0L387 0L387 412L80 412L80 561L387 561L335 684L80 684L80 833L273 833L49 1365Z"  horiz-adv-x="1047" vert-adv-y="2048"  />

      
      <glyph glyph-name="unib5" unicode="&#xb5;" d="M592 1010L874 1010L874 0L609 0L609 138Q590 38 558.50 8.50Q527-21 482-21Q435-21 404.50 9Q374 39 355 138L355-342L90-342L90 1010L371 1010L371 495Q371 353 375.50 301Q380 249 408 223.50Q436 198 482 198Q527 198 555 222.50Q583 247 587.50 298Q592 349 592 495L592 1010Z"  horiz-adv-x="977" vert-adv-y="2048"  />

      
      <glyph glyph-name="uni2202" unicode="&#x2202;" d="M380 1123L243 1207Q294 1354 397 1422.50Q500 1491 613 1491Q774 1491 876 1354.50Q978 1218 978 941Q978 702 901 454Q824 206 674.50 89Q525-28 357-28Q217-28 131 65Q45 158 45 326Q45 587 249.50 765Q454 943 788 943Q800 943 827 942Q827 1120 769 1214.50Q711 1309 608 1309Q471 1309 380 1123M815 758L775 759Q546 759 410 634.50Q274 510 274 338Q274 268 313.50 216.50Q353 165 415 165Q552 165 666 325Q780 485 815 758Z"  horiz-adv-x="1012" vert-adv-y="2048"  />

      
      <glyph glyph-name="uni2211" unicode="&#x2211;" d="M139 1536L1376 1536L1376 1372L388 1372L995 569L346-265L1386-265L1386-426L122-426L122-239L742 561L139 1360L139 1536Z"  horiz-adv-x="1460" vert-adv-y="2048"  />

      
      <glyph glyph-name="uni220F" unicode="&#x220F;" d="M162 1536L1524 1536L1524-426L1333-426L1333 1362L355 1362L355-426L162-426L162 1536Z"  horiz-adv-x="1685" vert-adv-y="2048"  />

      
      <glyph glyph-name="uniF006" unicode="&#xF006;" d="M976 782L976 0L694 0L694 782L415 782L415 0L133 0L133 782L31 782L31 1010L1078 1010L1078 782L976 782Z"  horiz-adv-x="1109" vert-adv-y="2048"  />

      
      <glyph glyph-name="uni222B" unicode="&#x222B;" d="M435 1863Q489 1863 524.50 1828.50Q560 1794 560 1756Q560 1712 534.50 1682Q509 1652 468 1652Q433 1652 392 1688Q369 1708 352 1708Q312 1708 312 1644Q312 1602 321 1499Q358 1089 358 834Q358 767 346 364Q334-39 269-129.50Q204-220 118-220Q69-220 34.50-187.50Q0-155 0-99Q0-56 24.50-28Q49 0 90 0Q130 0 160-33Q188-64 208-64Q247-64 247-3Q247 39 238 117Q201 433 201 948Q201 1537 257 1700Q313 1863 435 1863Z"  horiz-adv-x="561" vert-adv-y="2048"  />

      
      <glyph glyph-name="uniaa" unicode="&#xaa;" d="M271 969L69 987Q110 1172 344 1172Q433 1172 490.50 1143.50Q548 1115 569 1072Q590 1029 590 924L590 692Q590 576 608 546L429 546Q420 587 417 632Q347 534 230 534Q152 534 98.50 578.50Q45 623 45 710Q45 921 385 939L385 962Q385 1037 332 1037Q279 1037 271 969M385 822Q311 821 284.50 798Q258 775 258 731Q258 669 308 669Q385 669 385 822Z"  horiz-adv-x="663" vert-adv-y="2048"  />

      
      <glyph glyph-name="uniba" unicode="&#xba;" d="M593 858Q593 534 314 534Q35 534 35 853Q35 1172 314 1172Q593 1172 593 858M374 853Q374 965 359 995.50Q344 1026 314 1026Q275 1026 264.50 981.50Q254 937 254 853Q254 781 263 730.50Q272 680 315 680Q356 680 365 730.50Q374 781 374 853Z"  horiz-adv-x="628" vert-adv-y="2048"  />

      
      <glyph glyph-name="uni2126" unicode="&#x2126;" d="M462 207Q77 369 77 812Q77 1119 267.50 1311Q458 1503 783 1503Q1005 1503 1157.50 1429Q1310 1355 1410 1189.50Q1510 1024 1510 811Q1510 379 1128 207L1458 230L1530 230L1530 0L888 0L888 243Q1194 390 1194 784Q1194 1028 1081 1156Q968 1284 785 1284Q597 1284 492.50 1142.50Q388 1001 388 791Q388 607 466.50 458.50Q545 310 700 243L700 0L55 0L55 230L153 230L462 207Z"  horiz-adv-x="1573" vert-adv-y="2048"  />

      
      <glyph glyph-name="unie6" unicode="&#xe6;" d="M1370 458L847 458Q846 428 846 412Q846 174 980 174Q1101 174 1119 343L1361 326Q1301-21 981-21Q771-21 691 151Q584-21 366-21Q227-21 150 57Q73 135 73 263Q73 349 112.50 430Q152 511 246 559Q340 607 573 628Q575 675 575 694Q575 791 542.50 817.50Q510 844 468 844Q354 844 343 681L98 709Q149 1031 483 1031Q659 1031 725 927Q822 1030 975 1030Q1119 1030 1207 958.50Q1295 887 1332.50 773.50Q1370 660 1370 458M1106 621Q1103 844 977 844Q856 844 846 621L1106 621M573 483Q432 465 393 418Q354 371 354 297Q354 165 448 165Q574 165 574 404Q574 431 573 483Z"  horiz-adv-x="1430" vert-adv-y="2048"  />

      
      <glyph glyph-name="unif8" unicode="&#xf8;" d="M722 1115L856 1115L759 922Q882 787 882 505Q882-21 472-21Q372-21 292 10L228-117L95-117L193 78Q61 215 61 505Q61 1030 472 1030Q579 1030 662 995L722 1115M564 825Q519 848 475 848Q379 848 345.50 772.50Q312 697 312 505Q312 407 322 304L564 825M391 176Q426 162 472 162Q570 162 600.50 243.50Q631 325 631 505Q631 582 624 681L391 176Z"  horiz-adv-x="942" vert-adv-y="2048"  />

      
      <glyph glyph-name="unibf" unicode="&#xbf;" d="M662 719L395 719L395 1010L662 1009L662 719M662 114L918 78Q913-129 804.50-253Q696-377 499-377Q288-377 192.50-261.50Q97-146 97 6Q97 125 143 205.50Q189 286 298 384Q375 452 391.50 487.50Q408 523 408 619L648 619L648 573Q648 445 633.50 391Q619 337 531 252Q457 179 428 126.50Q399 74 399 0Q399-66 433.50-99Q468-132 516-132Q661-132 662 114Z"  horiz-adv-x="977" vert-adv-y="2048"  />

      
      <glyph glyph-name="unia1" unicode="&#xa1;" d="M488 707L209 707L209 1010L488 1009L488 707M529-356L169-356L257 602L440 602L529-356Z"  horiz-adv-x="698" vert-adv-y="2048"  />

      
      <glyph glyph-name="uniac" unicode="&#xac;" d="M658 0L658 327L68 327L68 595L955 595L955 0L658 0Z"  horiz-adv-x="1024" vert-adv-y="2048"  />

      
      <glyph glyph-name="uni221A" unicode="&#x221A;" d="M1047 1869L1121 1869L809-78L313 943L115 852L81 916L382 1067L787 244L1047 1869Z"  horiz-adv-x="1124" vert-adv-y="2048"  />

      
      <glyph glyph-name="uni0192" unicode="&#x0192;" d="M730 984L905 984L872 763L698 763L603 89Q571-140 477.50-220Q384-300 239-300Q180-300 120-286L155-63Q196-68 218-68Q282-68 305-33.50Q328 1 345 120L435 763L291 763L322 984L466 984Q508 1256 592 1327Q676 1398 805 1398Q867 1398 962 1376L930 1154Q883 1172 844 1172Q791 1172 766.50 1134Q742 1096 730 984Z"  horiz-adv-x="1047" vert-adv-y="2048"  />

      
      <glyph glyph-name="uni2248" unicode="&#x2248;" d="M177 717L28 822Q139 1100 333 1100Q402 1100 564 1030Q683 979 722 979Q801 979 869 1086L1018 982Q913 707 698 707Q632 707 470 779Q369 824 319 824Q246 824 177 717M177 275L28 380Q140 658 333 658Q401 658 564 589Q684 537 722 537Q801 537 869 644L1018 540Q914 265 696 265Q633 265 470 337Q369 383 319 383Q246 383 177 275Z"  horiz-adv-x="1047" vert-adv-y="2048"  />

      
      <glyph glyph-name="uni2206" unicode="&#x2206;" d="M1226 0L26 0L654 1387L1226 0M990 82L591 1049L151 82L990 82Z"  horiz-adv-x="1253" vert-adv-y="2048"  />

      
      <glyph glyph-name="uniab" unicode="&#xab;" d="M807 167L658 167L448 525L658 882L807 882L682 525L807 167M458 167L310 167L99 525L310 882L458 882L333 525L458 167Z"  horiz-adv-x="907" vert-adv-y="2048"  />

      
      <glyph glyph-name="unibb" unicode="&#xbb;" d="M99 882L248 882L458 525L248 167L99 167L224 525L99 882M448 882L596 882L807 525L596 167L448 167L573 525L448 882Z"  horiz-adv-x="907" vert-adv-y="2048"  />

      
      <glyph glyph-name="uni2026" unicode="&#x2026;" d="M122 302L401 302L401 0L122 0L122 302M645 302L925 302L925 0L645 0L645 302M1169 302L1448 302L1448 0L1169 0L1169 302Z"  horiz-adv-x="1570" vert-adv-y="2048"  />

      
      <glyph glyph-name="unic0" unicode="&#xc0;" d="M370 1365L672 1365L1062 0L755 0L687 282L303 282L236 0L-40 0L370 1365M630 516L493 1073L360 516L630 516M687 1535L603 1451L234 1682L346 1849L687 1535Z"  horiz-adv-x="1047" vert-adv-y="2048"  />

      
      <glyph glyph-name="unic3" unicode="&#xc3;" d="M370 1365L672 1365L1062 0L755 0L687 282L303 282L236 0L-40 0L370 1365M630 516L493 1073L360 516L630 516M763 1705L852 1639Q750 1486 623 1486Q575 1486 497 1521Q409 1560 375 1560Q336 1560 280 1497L194 1564Q305 1707 413 1707Q463 1707 545 1672Q635 1633 667 1633Q712 1633 763 1705Z"  horiz-adv-x="1047" vert-adv-y="2048"  />

      
      <glyph glyph-name="unid5" unicode="&#xd5;" d="M1071 683Q1071-21 576-21Q330-21 205 158.50Q80 338 80 683Q80 1386 575 1386Q817 1386 944 1210Q1071 1034 1071 683M755 683Q755 959 712 1050.50Q669 1142 575 1142Q482 1142 439 1050Q396 958 396 683Q396 413 438.50 318Q481 223 575 223Q668 223 711.50 314Q755 405 755 683M816 1705L905 1639Q803 1486 676 1486Q628 1486 550 1521Q462 1560 428 1560Q389 1560 333 1497L247 1564Q358 1707 466 1707Q516 1707 598 1672Q688 1633 720 1633Q765 1633 816 1705Z"  horiz-adv-x="1151" vert-adv-y="2048"  />

      
      <glyph glyph-name="uni0152" unicode="&#x0152;" d="M1587 1365L1587 1131L1051 1131L1051 814L1470 814L1470 579L1051 579L1051 244L1587 244L1587 0L775 0Q669-21 595-21Q456-21 335.50 44Q215 109 147.50 280.50Q80 452 80 648Q80 1036 216 1211Q352 1386 606 1386Q683 1386 792 1365L1587 1365M763 1088Q707 1142 610 1142Q473 1142 434.50 998.50Q396 855 396 661Q396 223 615 223Q706 223 763 274L763 1088Z"  horiz-adv-x="1605" vert-adv-y="2048"  />

      
      <glyph glyph-name="uni0153" unicode="&#x0153;" d="M1405 458L869 458Q868 423 868 402Q868 266 907.50 220Q947 174 1010 174Q1137 174 1154 347L1405 331Q1331-21 1010-21Q840-21 732 88Q639-21 462-21Q262-21 161.50 114Q61 249 61 505Q61 1030 465 1030Q648 1030 744 913Q840 1030 1002 1030Q1143 1030 1237 955.50Q1331 881 1368 763.50Q1405 646 1405 458M1140 621L1140 650Q1140 844 1008 844Q872 844 871 621L1140 621M591 505Q591 696 564.50 765Q538 834 471 834Q407 834 379.50 769.50Q352 705 352 505Q352 320 376.50 248Q401 176 471 176Q542 176 566.50 249Q591 322 591 505Z"  horiz-adv-x="1465" vert-adv-y="2048"  />

      
      <glyph glyph-name="uni2013" unicode="&#x2013;" d="M81 622L825 622L825 413L81 413L81 622Z"  horiz-adv-x="907" vert-adv-y="2048"  />

      
      <glyph glyph-name="uni2014" unicode="&#x2014;" d="M76 622L1285 622L1285 413L76 413L76 622Z"  horiz-adv-x="1361" vert-adv-y="2048"  />

      
      <glyph glyph-name="uni201C" unicode="&#x201C;" d="M738 819L482 819L482 1121L628 1389L738 1389L625 1121L738 1121L738 819M389 819L133 819L133 1121L279 1389L389 1389L276 1121L389 1121L389 819Z"  horiz-adv-x="872" vert-adv-y="2048"  />

      
      <glyph glyph-name="uni201D" unicode="&#x201D;" d="M133 1365L389 1365L389 1063L243 795L133 795L246 1063L133 1063L133 1365M482 1365L738 1365L738 1063L592 795L482 795L594 1063L482 1063L482 1365Z"  horiz-adv-x="872" vert-adv-y="2048"  />

      
      <glyph glyph-name="uni2018" unicode="&#x2018;" d="M372 819L116 819L116 1121L262 1389L372 1389L259 1121L372 1121L372 819Z"  horiz-adv-x="488" vert-adv-y="2048"  />

      
      <glyph glyph-name="uni2019" unicode="&#x2019;" d="M116 1365L372 1365L372 1063L226 795L116 795L229 1063L116 1063L116 1365Z"  horiz-adv-x="488" vert-adv-y="2048"  />

      
      <glyph glyph-name="unif7" unicode="&#xf7;" d="M645 885L403 885L403 1155L645 1155L645 885M942 574L105 574L105 791L942 791L942 574M645 210L403 210L403 481L645 481L645 210Z"  horiz-adv-x="1047" vert-adv-y="2048"  />

      
      <glyph glyph-name="uni25CA" unicode="&#x25CA;" d="M549 1422L967 709L549 0L438 0L47 709L438 1422L549 1422M495 1325L155 709L495 94L854 709L495 1325Z"  horiz-adv-x="1012" vert-adv-y="2048"  />

      
      <glyph glyph-name="uniff" unicode="&#xff;" d="M-28 1010L254 1010L390 393L521 1010L764 1010L460-16Q416-163 385-222Q354-281 292-319.50Q230-358 134-358Q75-358 14-342L14-120Q56-126 93-126Q175-126 205.50-99Q236-72 263 19L-28 1010M435 1269Q435 1314 468.50 1345.50Q502 1377 549 1377Q597 1377 630 1345.50Q663 1314 663 1269Q663 1221 627 1191.50Q591 1162 549 1162Q506 1162 470.50 1192Q435 1222 435 1269M97 1269Q97 1314 130.50 1345.50Q164 1377 211 1377Q258 1377 291.50 1345.50Q325 1314 325 1269Q325 1222 289.50 1192Q254 1162 211 1162Q170 1162 133.50 1191Q97 1220 97 1269Z"  horiz-adv-x="733" vert-adv-y="2048"  />

      
      <glyph glyph-name="uni0178" unicode="&#x0178;" d="M-58 1365L272 1365L465 867L671 1365L964 1365L585 577L585 0L285 0L285 577L-58 1365M509 1601Q509 1646 542.50 1677.50Q576 1709 623 1709Q671 1709 704 1677.50Q737 1646 737 1601Q737 1553 701 1523.50Q665 1494 623 1494Q580 1494 544.50 1524Q509 1554 509 1601M171 1601Q171 1646 204.50 1677.50Q238 1709 285 1709Q332 1709 365.50 1677.50Q399 1646 399 1601Q399 1554 363.50 1524Q328 1494 285 1494Q244 1494 207.50 1523Q171 1552 171 1601Z"  horiz-adv-x="907" vert-adv-y="2048"  />

      
      <glyph glyph-name="uni2215" unicode="&#x2215;" d="M329 1365L494 1365L-157 0L-318 0L329 1365Z"  horiz-adv-x="176" vert-adv-y="2048"  />

      
      <glyph glyph-name="unia4" unicode="&#xa4;" d="M693 1016L825 1148L968 1005L836 873Q879 793 879 703Q879 618 838 538L971 405L821 255L688 388Q606 347 523 347Q435 347 354 390L221 258L78 401L210 534Q167 615 167 703Q167 790 208 868L75 1001L225 1151L358 1018Q436 1059 523 1059Q613 1059 693 1016M364 703Q364 637 410.50 590.50Q457 544 523 544Q589 544 635.50 591Q682 638 682 703Q682 768 635.50 815Q589 862 523 862Q458 862 411 815.50Q364 769 364 703Z"  horiz-adv-x="1047" vert-adv-y="2048"  />

      
      <glyph glyph-name="uni2039" unicode="&#x2039;" d="M458 167L310 167L99 525L310 882L458 882L333 525L458 167Z"  horiz-adv-x="558" vert-adv-y="2048"  />

      
      <glyph glyph-name="uni203A" unicode="&#x203A;" d="M100 882L249 882L459 525L249 167L100 167L225 525L100 882Z"  horiz-adv-x="559" vert-adv-y="2048"  />

      
      <glyph glyph-name="uniFB01" unicode="&#xFB01;" d="M422 1010L600 1010L600 788L422 788L422 0L152 0L152 788L37 788L37 1010L152 1010Q155 1168 173.50 1232.50Q192 1297 262.50 1358Q333 1419 482 1419Q539 1419 595 1411L595 1191Q566 1193 548 1193Q476 1193 453 1168.50Q430 1144 426 1117Q422 1090 422 1010M980 1093L694 1093L694 1372L980 1372L980 1093M696 1010L978 1010L978 0L696 0L696 1010Z"  horiz-adv-x="1081" vert-adv-y="2048"  />

      
      <glyph glyph-name="uniFB02" unicode="&#xFB02;" d="M422 1010L600 1010L600 788L422 788L422 0L152 0L152 788L37 788L37 1010L152 1010Q155 1168 173.50 1232.50Q192 1297 262.50 1358Q333 1419 482 1419Q539 1419 595 1411L595 1191Q566 1193 548 1193Q476 1193 453 1168.50Q430 1144 426 1117Q422 1090 422 1010M696 1365L978 1365L978 0L696 0L696 1365Z"  horiz-adv-x="1081" vert-adv-y="2048"  />

      
      <glyph glyph-name="uni2021" unicode="&#x2021;" d="M388 1365L659 1365L659 999L942 999L942 764L659 764L659 260L942 260L942 24L659 24L659-342L388-342L388 24L105 24L105 260L388 260L388 764L105 764L105 999L388 999L388 1365Z"  horiz-adv-x="1047" vert-adv-y="2048"  />

      
      <glyph glyph-name="uni2219" unicode="&#x2219;" d="M122 677L401 677L401 374L122 375L122 677Z"  horiz-adv-x="523" vert-adv-y="2048"  />

      
      <glyph glyph-name="uni201A" unicode="&#x201A;" d="M116 302L372 302L372 0L226-268L116-268L229 0L116 0L116 302Z"  horiz-adv-x="489" vert-adv-y="2048"  />

      
      <glyph glyph-name="uni201E" unicode="&#x201E;" d="M133 302L389 302L389 0L243-267L133-267L246 0L133 0L133 302M482 302L738 302L738 0L592-267L482-267L594 0L482 0L482 302Z"  horiz-adv-x="872" vert-adv-y="2048"  />

      
      <glyph glyph-name="uni2030" unicode="&#x2030;" d="M596 1021Q596 850 524 760Q452 670 326 670Q201 670 128.50 758Q56 846 56 1021Q56 1193 127.50 1282.50Q199 1372 326 1372Q453 1372 524.50 1282Q596 1192 596 1021M401 1021Q401 1149 381.50 1185Q362 1221 326 1221Q286 1221 268 1181Q250 1141 250 1021Q250 893 269.50 857Q289 821 326 821Q366 821 383.50 862.50Q401 904 401 1021M928 1365L1082 1365L438 0L283 0L928 1365M1305 344Q1305 172 1233 82.50Q1161-7 1035-7Q909-7 837 83Q765 173 765 344Q765 516 837.50 605.50Q910 695 1035 695Q1159 695 1232 607Q1305 519 1305 344M1111 344Q1111 472 1091.50 508Q1072 544 1035 544Q995 544 977.50 503Q960 462 960 344Q960 217 979.50 180.50Q999 144 1035 144Q1076 144 1093.50 185.50Q1111 227 1111 344M1927 344Q1927 173 1855 83Q1783-7 1657-7Q1531-7 1459 82.50Q1387 172 1387 344Q1387 517 1459.50 606Q1532 695 1657 695Q1781 695 1854 607Q1927 519 1927 344M1733 344Q1733 472 1713 508Q1693 544 1657 544Q1617 544 1599 504.50Q1581 465 1581 344Q1581 216 1601 180Q1621 144 1657 144Q1698 144 1715.50 186.50Q1733 229 1733 344Z"  horiz-adv-x="1989" vert-adv-y="2048"  />

      
      <glyph glyph-name="unic2" unicode="&#xc2;" d="M370 1365L672 1365L1062 0L755 0L687 282L303 282L236 0L-40 0L370 1365M630 516L493 1073L360 516L630 516M120 1488L521 1801L922 1488L704 1488L521 1606L338 1488L120 1488Z"  horiz-adv-x="1047" vert-adv-y="2048"  />

      
      <glyph glyph-name="unica" unicode="&#xca;" d="M129 1365L959 1365L959 1131L429 1131L429 814L841 814L841 579L429 579L429 244L959 244L959 0L129 0L129 1365M148 1488L549 1801L950 1488L732 1488L549 1606L366 1488L148 1488Z"  horiz-adv-x="977" vert-adv-y="2048"  />

      
      <glyph glyph-name="unic1" unicode="&#xc1;" d="M370 1365L672 1365L1062 0L755 0L687 282L303 282L236 0L-40 0L370 1365M630 516L493 1073L360 516L630 516M378 1535L719 1849L831 1682L462 1451L378 1535Z"  horiz-adv-x="1047" vert-adv-y="2048"  />

      
      <glyph glyph-name="unicb" unicode="&#xcb;" d="M129 1365L959 1365L959 1131L429 1131L429 814L841 814L841 579L429 579L429 244L959 244L959 0L129 0L129 1365M598 1601Q598 1646 631.50 1677.50Q665 1709 712 1709Q760 1709 793 1677.50Q826 1646 826 1601Q826 1553 790 1523.50Q754 1494 712 1494Q669 1494 633.50 1524Q598 1554 598 1601M260 1601Q260 1646 293.50 1677.50Q327 1709 374 1709Q421 1709 454.50 1677.50Q488 1646 488 1601Q488 1554 452.50 1524Q417 1494 374 1494Q333 1494 296.50 1523Q260 1552 260 1601Z"  horiz-adv-x="977" vert-adv-y="2048"  />

      
      <glyph glyph-name="unic8" unicode="&#xc8;" d="M129 1365L959 1365L959 1131L429 1131L429 814L841 814L841 579L429 579L429 244L959 244L959 0L129 0L129 1365M718 1535L634 1451L265 1682L377 1849L718 1535Z"  horiz-adv-x="977" vert-adv-y="2048"  />

      
      <glyph glyph-name="unicd" unicode="&#xcd;" d="M129 1365L429 1365L429 0L129 0L129 1365M95 1535L436 1849L548 1682L179 1451L95 1535Z"  horiz-adv-x="558" vert-adv-y="2048"  />

      
      <glyph glyph-name="unice" unicode="&#xce;" d="M129 1365L429 1365L429 0L129 0L129 1365M-122 1464L279 1777L680 1464L462 1464L279 1582L96 1464L-122 1464Z"  horiz-adv-x="558" vert-adv-y="2048"  />

      
      <glyph glyph-name="unicf" unicode="&#xcf;" d="M129 1365L429 1365L429 0L129 0L129 1365M334 1601Q334 1646 367.50 1677.50Q401 1709 448 1709Q496 1709 529 1677.50Q562 1646 562 1601Q562 1553 526 1523.50Q490 1494 448 1494Q405 1494 369.50 1524Q334 1554 334 1601M-4 1601Q-4 1646 29.50 1677.50Q63 1709 110 1709Q157 1709 190.50 1677.50Q224 1646 224 1601Q224 1554 188.50 1524Q153 1494 110 1494Q69 1494 32.50 1523Q-4 1552-4 1601Z"  horiz-adv-x="558" vert-adv-y="2048"  />

      
      <glyph glyph-name="unicc" unicode="&#xcc;" d="M129 1365L429 1365L429 0L129 0L129 1365M459 1535L375 1451L6 1682L118 1849L459 1535Z"  horiz-adv-x="558" vert-adv-y="2048"  />

      
      <glyph glyph-name="unid3" unicode="&#xd3;" d="M1071 683Q1071-21 576-21Q330-21 205 158.50Q80 338 80 683Q80 1386 575 1386Q817 1386 944 1210Q1071 1034 1071 683M755 683Q755 959 712 1050.50Q669 1142 575 1142Q482 1142 439 1050Q396 958 396 683Q396 413 438.50 318Q481 223 575 223Q668 223 711.50 314Q755 405 755 683M404 1554L745 1868L857 1701L488 1470L404 1554Z"  horiz-adv-x="1151" vert-adv-y="2048"  />

      
      <glyph glyph-name="unid4" unicode="&#xd4;" d="M1071 683Q1071-21 576-21Q330-21 205 158.50Q80 338 80 683Q80 1386 575 1386Q817 1386 944 1210Q1071 1034 1071 683M755 683Q755 959 712 1050.50Q669 1142 575 1142Q482 1142 439 1050Q396 958 396 683Q396 413 438.50 318Q481 223 575 223Q668 223 711.50 314Q755 405 755 683M182 1464L583 1777L984 1464L766 1464L583 1582L400 1464L182 1464Z"  horiz-adv-x="1151" vert-adv-y="2048"  />

      
      <glyph glyph-name="unid2" unicode="&#xd2;" d="M1071 683Q1071-21 576-21Q330-21 205 158.50Q80 338 80 683Q80 1386 575 1386Q817 1386 944 1210Q1071 1034 1071 683M755 683Q755 959 712 1050.50Q669 1142 575 1142Q482 1142 439 1050Q396 958 396 683Q396 413 438.50 318Q481 223 575 223Q668 223 711.50 314Q755 405 755 683M747 1554L663 1470L294 1701L406 1868L747 1554Z"  horiz-adv-x="1151" vert-adv-y="2048"  />

      
      <glyph glyph-name="unida" unicode="&#xda;" d="M129 1365L429 1365L429 585Q429 420 444 355Q459 290 506.50 256.50Q554 223 623 223Q698 223 742 260Q786 297 796 358Q806 419 806 585L806 1365L1057 1365L1057 597Q1057 367 1030.50 254Q1004 141 895.50 60Q787-21 597-21Q419-21 317 38.50Q215 98 172 205.50Q129 313 129 585L129 1365M437 1535L778 1849L890 1682L521 1451L437 1535Z"  horiz-adv-x="1186" vert-adv-y="2048"  />

      
      <glyph glyph-name="unidb" unicode="&#xdb;" d="M129 1365L429 1365L429 585Q429 420 444 355Q459 290 506.50 256.50Q554 223 623 223Q698 223 742 260Q786 297 796 358Q806 419 806 585L806 1365L1057 1365L1057 597Q1057 367 1030.50 254Q1004 141 895.50 60Q787-21 597-21Q419-21 317 38.50Q215 98 172 205.50Q129 313 129 585L129 1365M116 1481L517 1794L918 1481L700 1481L517 1599L334 1481L116 1481Z"  horiz-adv-x="1186" vert-adv-y="2048"  />

      
      <glyph glyph-name="unid9" unicode="&#xd9;" d="M129 1365L429 1365L429 585Q429 420 444 355Q459 290 506.50 256.50Q554 223 623 223Q698 223 742 260Q786 297 796 358Q806 419 806 585L806 1365L1057 1365L1057 597Q1057 367 1030.50 254Q1004 141 895.50 60Q787-21 597-21Q419-21 317 38.50Q215 98 172 205.50Q129 313 129 585L129 1365M778 1535L694 1451L325 1682L437 1849L778 1535Z"  horiz-adv-x="1186" vert-adv-y="2048"  />

      
      <glyph glyph-name="uni0131" unicode="&#x0131;" d="M103 1010L385 1010L385 0L103 0L103 1010Z"  horiz-adv-x="488" vert-adv-y="2048"  />

      
      <glyph glyph-name="uni02C6" unicode="&#x02C6;" d="M70 1132L471 1445L872 1132L654 1132L471 1250L288 1132L70 1132Z"  horiz-adv-x="942" vert-adv-y="2048"  />

      
      <glyph glyph-name="uni02DC" unicode="&#x02DC;" d="M711 1385L800 1319Q698 1166 571 1166Q523 1166 445 1201Q357 1240 323 1240Q284 1240 228 1177L142 1244Q253 1387 361 1387Q411 1387 493 1352Q583 1313 615 1313Q660 1313 711 1385Z"  horiz-adv-x="942" vert-adv-y="2048"  />

      
      <glyph glyph-name="uni02C9" unicode="&#x02C9;" d="M190 1343L752 1343L752 1196L190 1196L190 1343Z"  horiz-adv-x="942" vert-adv-y="2048"  />

      
      <glyph glyph-name="uni02D8" unicode="&#x02D8;" d="M140 1401L301 1401Q343 1296 471 1296Q598 1296 641 1401L802 1401Q731 1150 471 1150Q213 1150 140 1401Z"  horiz-adv-x="942" vert-adv-y="2048"  />

      
      <glyph glyph-name="uni02D9" unicode="&#x02D9;" d="M344 1269Q344 1321 381.50 1357.50Q419 1394 471 1394Q524 1394 561.50 1357Q599 1320 599 1269Q599 1216 560.50 1180.50Q522 1145 472 1145Q421 1145 382.50 1180.50Q344 1216 344 1269Z"  horiz-adv-x="942" vert-adv-y="2048"  />

      
      <glyph glyph-name="uni02DA" unicode="&#x02DA;" d="M278 1301Q278 1384 336 1440Q394 1496 471 1496Q548 1496 606 1440.50Q664 1385 664 1301Q664 1215 603.50 1162Q543 1109 471 1109Q399 1109 338.50 1162.50Q278 1216 278 1301M394 1302Q394 1266 418.50 1243.50Q443 1221 471 1221Q500 1221 524 1243.50Q548 1266 548 1302Q548 1337 524.50 1360.50Q501 1384 471 1384Q441 1384 417.50 1360.50Q394 1337 394 1302Z"  horiz-adv-x="942" vert-adv-y="2048"  />

      
      <glyph glyph-name="unib8" unicode="&#xb8;" d="M427 0L543 0L503-102Q529-99 542-99Q612-99 658.50-142Q705-185 705-258Q705-334 650-381.50Q595-429 499-429Q393-429 279-357L312-274Q409-324 473-324Q546-324 546-263Q546-225 512-201Q478-177 429-177Q403-177 362-182L427 0Z"  horiz-adv-x="942" vert-adv-y="2048"  />

      
      <glyph glyph-name="uni02DD" unicode="&#x02DD;" d="M507 1469L621 1345L335 1118L259 1194L507 1469M820 1469L934 1345L648 1118L572 1193L820 1469Z"  horiz-adv-x="942" vert-adv-y="2048"  />

      
      <glyph glyph-name="uni02DB" unicode="&#x02DB;" d="M628 0Q537-85 537-160Q537-267 668-267Q714-267 734-263L755-357Q692-373 638-373Q505-373 442.50-321Q380-269 380-192Q380-81 521 0L628 0Z"  horiz-adv-x="942" vert-adv-y="2048"  />

      
      <glyph glyph-name="uni02C7" unicode="&#x02C7;" d="M70 1426L288 1426L471 1307L654 1426L872 1426L471 1113L70 1426Z"  horiz-adv-x="942" vert-adv-y="2048"  />

      
      <glyph glyph-name="uni0141" unicode="&#x0141;" d="M129 1365L429 1365L429 890L653 1113L653 872L429 649L429 256L869 256L869 0L129 0L129 444L13 327L13 568L129 686L129 1365Z"  horiz-adv-x="872" vert-adv-y="2048"  />

      
      <glyph glyph-name="uni0142" unicode="&#x0142;" d="M138 1365L419 1365L419 905L542 1023L542 823L419 706L419 0L138 0L138 520L15 396L15 595L138 719L138 1365Z"  horiz-adv-x="558" vert-adv-y="2048"  />

      
      <glyph glyph-name="uni0160" unicode="&#x0160;" d="M964 1068L716 973Q663 1142 522 1142Q456 1142 417.50 1104.50Q379 1067 379 1017Q379 959 424.50 924.50Q470 890 615 834Q747 785 822.50 737Q898 689 944.50 606.50Q991 524 991 415Q991 224 859.50 101.50Q728-21 507-21Q136-21 33 354L295 429Q343 223 514 223Q592 223 640.50 263.50Q689 304 689 370Q689 420 655 459.50Q621 499 499 543Q342 599 265 644.50Q188 690 138 774.50Q88 859 88 967Q88 1151 206.50 1268.50Q325 1386 520 1386Q876 1386 964 1068M137 1762L355 1762L538 1643L721 1762L939 1762L538 1449L137 1762Z"  horiz-adv-x="1047" vert-adv-y="2048"  />

      
      <glyph glyph-name="uni0161" unicode="&#x0161;" d="M770 767L569 707Q529 844 421 844Q333 844 333 756Q333 706 366 680Q399 654 502 618Q618 577 672 546Q726 515 763 452.50Q800 390 800 309Q800 169 699 74Q598-21 417-21Q76-21 39 280L263 316Q291 165 422 165Q534 165 534 259Q534 309 501 335Q468 361 373 391Q199 447 134 526Q69 605 69 709Q69 855 171.50 943Q274 1031 428 1031Q697 1031 770 767M28 1426L246 1426L429 1307L612 1426L830 1426L429 1113L28 1426Z"  horiz-adv-x="837" vert-adv-y="2048"  />

      
      <glyph glyph-name="uni017D" unicode="&#x017D;" d="M44 1365L921 1365L921 1152L350 244L939 244L939 0L2 0L2 209L577 1121L44 1121L44 1365M90 1762L308 1762L491 1643L674 1762L892 1762L491 1449L90 1762Z"  horiz-adv-x="942" vert-adv-y="2048"  />

      
      <glyph glyph-name="uni017E" unicode="&#x017E;" d="M76 1010L706 1010L706 829L331 200L716 200L716 0L41 0L41 200L407 810L76 810L76 1010M-1 1426L217 1426L400 1307L583 1426L801 1426L400 1113L-1 1426Z"  horiz-adv-x="733" vert-adv-y="2048"  />

      
      <glyph glyph-name="unia6" unicode="&#xa6;" d="M358 1365L665 1365L665 646L358 646L358 1365M358 314L665 314L665-341L358-341L358 314Z"  horiz-adv-x="1024" vert-adv-y="2048"  />

      
      <glyph glyph-name="unid0" unicode="&#xd0;" d="M129 1365L452 1365Q663 1365 794.50 1308Q926 1251 1004.50 1098.50Q1083 946 1083 689Q1083 505 1035 362Q987 219 909 137.50Q831 56 733 28Q635 0 488 0L129 0L129 589L13 589L13 793L129 793L129 1365M429 1131L429 793L629 793L629 589L429 589L429 235L480 235Q584 235 641 274.50Q698 314 732.50 414.50Q767 515 767 702Q767 876 729 970Q691 1064 634 1097.50Q577 1131 480 1131L429 1131Z"  horiz-adv-x="1152" vert-adv-y="2048"  />

      
      <glyph glyph-name="unif0" unicode="&#xf0;" d="M563 1366L695 1446L756 1343L628 1267Q882 862 882 488Q882 258 784.50 118.50Q687-21 477-21Q61-21 61 505Q61 765 161.50 897Q262 1029 406 1029Q479 1029 538 983Q504 1084 458 1164L319 1081L258 1183L399 1268L329 1381L488 1477L563 1366M591 505Q591 698 564.50 766Q538 834 472 834Q408 834 380 769.50Q352 705 352 505Q352 320 376 248Q400 176 472 176Q541 176 566 247.50Q591 319 591 505Z"  horiz-adv-x="942" vert-adv-y="2048"  />

      
      <glyph glyph-name="unidd" unicode="&#xdd;" d="M-58 1365L272 1365L465 867L671 1365L964 1365L585 577L585 0L285 0L285 577L-58 1365M305 1535L646 1849L758 1682L389 1451L305 1535Z"  horiz-adv-x="907" vert-adv-y="2048"  />

      
      <glyph glyph-name="unifd" unicode="&#xfd;" d="M-28 1010L254 1010L390 393L521 1010L764 1010L460-16Q416-163 385-222Q354-281 292-319.50Q230-358 134-358Q75-358 14-342L14-120Q56-126 93-126Q175-126 205.50-99Q236-72 263 19L-28 1010M236 1203L577 1517L689 1350L320 1119L236 1203Z"  horiz-adv-x="733" vert-adv-y="2048"  />

      
      <glyph glyph-name="unide" unicode="&#xde;" d="M129 1365L429 1365L429 1179L522 1179Q701 1179 800 1148.50Q899 1118 965.50 1012.50Q1032 907 1032 752Q1032 602 978 504Q924 406 828.50 362.50Q733 319 535 319L429 319L429 0L129 0L129 1365M429 958L429 554L522 554Q643 554 679.50 609.50Q716 665 716 759Q716 836 688.50 883.50Q661 931 624.50 944.50Q588 958 522 958L429 958Z"  horiz-adv-x="1047" vert-adv-y="2048"  />

      
      <glyph glyph-name="unife" unicode="&#xfe;" d="M104 1365L381 1365L381 882Q466 1023 600 1023Q739 1023 828 894Q917 765 917 522Q917 256 827 121Q737-14 575-14Q459-14 386 75L381-342L104-342L104 1365M381 413Q381 268 404.50 224.50Q428 181 500 181Q564 181 595 239Q626 297 626 520Q626 714 599 776Q572 838 513 838Q449 838 415 778.50Q381 719 381 604L381 413Z"  horiz-adv-x="977" vert-adv-y="2048"  />

      
      <glyph glyph-name="uni2212" unicode="&#x2212;" d="M942 574L105 574L105 791L942 791L942 574Z"  horiz-adv-x="1047" vert-adv-y="2048"  />

      
      <glyph glyph-name="unid7" unicode="&#xd7;" d="M523 842L756 1075L916 915L683 683L916 450L756 291L523 523L290 291L131 450L363 683L131 915L290 1075L523 842Z"  horiz-adv-x="1047" vert-adv-y="2048"  />

      
      <glyph glyph-name="unib9" unicode="&#xb9;" d="M329 1372L500 1372L500 707L644 707L644 546L128 546L128 707L275 707L275 1119Q203 1062 128 1031L128 1221Q251 1277 329 1372Z"  horiz-adv-x="698" vert-adv-y="2048"  />

      
      <glyph glyph-name="unib2" unicode="&#xb2;" d="M239 1053L31 1090Q75 1377 339 1377Q481 1377 554.50 1304.50Q628 1232 628 1133Q628 1048 565 957Q502 866 276 733L641 733L624 546L34 546L34 724Q280 914 336.50 986.50Q393 1059 393 1123Q393 1204 329 1204Q250 1204 239 1053Z"  horiz-adv-x="698" vert-adv-y="2048"  />

      
      <glyph glyph-name="unib3" unicode="&#xb3;" d="M234 1112L34 1145Q99 1377 342 1377Q474 1377 545.50 1314.50Q617 1252 617 1157Q617 1036 484 977Q634 925 634 780Q634 668 551 601Q468 534 332 534Q50 534 16 797L219 827Q227 707 316 707Q404 707 404 798Q404 895 286 895L216 895L216 1045L286 1045Q394 1045 394 1130Q394 1211 321 1211Q252 1211 234 1112Z"  horiz-adv-x="698" vert-adv-y="2048"  />

      
      <glyph glyph-name="unibd" unicode="&#xbd;" d="M311 1372L482 1372L482 707L626 707L626 546L110 546L110 707L257 707L257 1119Q185 1062 110 1031L110 1221Q233 1277 311 1372M1062 1365L1227 1365L576 0L415 0L1062 1365M1140 507L932 544Q976 831 1240 831Q1382 831 1455.50 758.50Q1529 686 1529 587Q1529 502 1466 411Q1403 320 1177 187L1542 187L1525 0L935 0L935 178Q1181 368 1237.50 440.50Q1294 513 1294 577Q1294 658 1230 658Q1151 658 1140 507Z"  horiz-adv-x="1640" vert-adv-y="2048"  />

      
      <glyph glyph-name="unibc" unicode="&#xbc;" d="M306 1372L477 1372L477 707L621 707L621 546L105 546L105 707L252 707L252 1119Q180 1062 105 1031L105 1221Q228 1277 306 1372M1062 1365L1227 1365L576 0L415 0L1062 1365M1242 831L1476 831L1476 352L1575 352L1575 185L1476 185L1476 0L1252 0L1252 185L938 185L938 340L1242 831M1273 330L1273 643L1090 330L1273 330Z"  horiz-adv-x="1640" vert-adv-y="2048"  />

      
      <glyph glyph-name="unibe" unicode="&#xbe;" d="M280 1112L80 1145Q145 1377 388 1377Q520 1377 591.50 1314.50Q663 1252 663 1157Q663 1036 530 977Q680 925 680 780Q680 668 597 601Q514 534 378 534Q96 534 62 797L265 827Q273 707 362 707Q450 707 450 798Q450 895 332 895L262 895L262 1045L332 1045Q440 1045 440 1130Q440 1211 367 1211Q298 1211 280 1112M1109 1365L1274 1365L623 0L462 0L1109 1365M1253 831L1487 831L1487 352L1586 352L1586 185L1487 185L1487 0L1263 0L1263 185L949 185L949 340L1253 831M1284 330L1284 643L1101 330L1284 330Z"  horiz-adv-x="1640" vert-adv-y="2048"  />

      
      <glyph glyph-name="uni20A3" unicode="&#x20A3;" d="M429 381L627 381L627 176L429 176L429 0L129 0L129 176L11 176L11 381L129 381L129 1365L939 1365L939 1131L429 1131L429 774L822 774L822 540L429 540L429 381Z"  horiz-adv-x="907" vert-adv-y="2048"  />

      
      <glyph glyph-name="uni011E" unicode="&#x011E;" d="M608 728L1082 728L1082 0L955 0L916 156Q806-21 586-21Q353-21 216.50 162.50Q80 346 80 656Q80 993 214.50 1189.50Q349 1386 612 1386Q1031 1386 1082 918L812 874Q784 1142 618 1142Q517 1142 456.50 1043Q396 944 396 668Q396 423 455 323Q514 223 628 223Q811 223 812 493L608 493L608 728M287 1733L448 1733Q490 1628 618 1628Q745 1628 788 1733L949 1733Q878 1482 618 1482Q360 1482 287 1733Z"  horiz-adv-x="1187" vert-adv-y="2048"  />

      
      <glyph glyph-name="uni011F" unicode="&#x011F;" d="M963 1176L963 992Q931 1000 902 1000Q814 1000 795 909Q870 830 870 707Q870 570 768 487.50Q666 405 504 405Q442 405 373 422Q307 386 307 339Q307 301 344 289Q381 277 546 268Q698 259 773.50 238Q849 217 899.50 152Q950 87 950-19Q950-357 457-357Q43-357 43-116Q43 17 208 72Q76 134 76 247Q76 377 250 469Q100 543 100 721Q100 872 203.50 951Q307 1030 480 1030Q595 1030 696 986Q707 1094 750 1140Q793 1186 885 1186Q929 1186 963 1176M579 716Q579 879 490 879Q436 879 413.50 839.50Q391 800 391 709Q391 556 488 556Q537 556 558 592Q579 628 579 716M364 44Q275 3 275-78Q275-180 507-180Q706-180 706-74Q706-35 684.50-10.50Q663 14 629.50 20.50Q596 27 489 32Q426 36 364 44M158 1401L319 1401Q361 1296 489 1296Q616 1296 659 1401L820 1401Q749 1150 489 1150Q231 1150 158 1401Z"  horiz-adv-x="942" vert-adv-y="2048"  />

      
      <glyph glyph-name="uni0130" unicode="&#x0130;" d="M129 1365L429 1365L429 0L129 0L129 1365M152 1601Q152 1653 189.50 1689.50Q227 1726 279 1726Q332 1726 369.50 1689Q407 1652 407 1601Q407 1548 368.50 1512.50Q330 1477 280 1477Q229 1477 190.50 1512.50Q152 1548 152 1601Z"  horiz-adv-x="558" vert-adv-y="2048"  />

      
      <glyph glyph-name="uni015E" unicode="&#x015E;" d="M673.50-148Q673.50-148 696.75-171Q720-194 720-266Q720-344 663-393Q606-442 508-442Q398-442 280-368L315-277Q412-329 481-329Q546-329 546-271Q546-235 515.50-211Q485-187 428-187L364-188L427-17Q117 27 33 354L295 429Q343 223 514 223Q592 223 640.50 263.50Q689 304 689 370Q689 420 655 459.50Q621 499 499 543Q342 599 265 644.50Q188 690 138 774.50Q88 859 88 967Q88 1151 206.50 1268.50Q325 1386 520 1386Q876 1386 964 1068L716 973Q663 1142 522 1142Q457 1142 418 1105Q379 1068 379 1017Q379 959 424.50 924.50Q470 890 615 834Q747 785 822.50 737Q898 689 944.50 606.50Q991 524 991 415Q991 232 869.50 111Q748-10 541-21L511-105Q537-102 551-102Q627-102 673.50-148Z"  horiz-adv-x="1047" vert-adv-y="2048"  />

      
      <glyph glyph-name="uni015F" unicode="&#x015F;" d="M619-258Q619-334 564-381.50Q509-429 412-429Q307-429 192-357L226-274Q323-324 386-324Q459-324 459-263Q459-225 425.50-201Q392-177 342-177Q316-177 275-182L335-15Q70 24 39 280L263 316Q291 165 422 165Q534 165 534 259Q534 309 501 335Q468 361 373 391Q199 447 134 526Q69 605 69 709Q69 855 171.50 943Q274 1031 428 1031Q697 1031 770 767L569 707Q529 844 421 844Q333 844 333 756Q333 706 366 680Q399 654 502 618Q618 577 672 546Q726 515 763 452.50Q800 390 800 309Q800 178 708.50 83.50Q617-11 448-21L416-102Q442-99 456-99Q525-99 572-142Q619-185 619-258Z"  horiz-adv-x="837" vert-adv-y="2048"  />

      
      <glyph glyph-name="uni0106" unicode="&#x0106;" d="M793 497L1070 480Q1055 258 929 118.50Q803-21 596-21Q344-21 212 166Q80 353 80 681Q80 1012 211 1199Q342 1386 600 1386Q1027 1386 1065 858L791 838Q780 1142 601 1142Q507 1142 451.50 1044Q396 946 396 664Q396 412 447 317.50Q498 223 600 223Q764 223 793 497M426 1535L767 1849L879 1682L510 1451L426 1535Z"  horiz-adv-x="1117" vert-adv-y="2048"  />

      
      <glyph glyph-name="uni0107" unicode="&#x0107;" d="M858 638L596 628Q590 721 566 768.50Q542 816 485 816Q343 816 343 518Q343 345 377.50 276Q412 207 480 207Q586 207 596 394L858 377Q823-21 462-21Q267-21 163.50 110.50Q60 242 60 502Q60 760 168.50 895Q277 1030 473 1030Q827 1030 858 638M332 1203L673 1517L785 1350L416 1119L332 1203Z"  horiz-adv-x="907" vert-adv-y="2048"  />

      
      <glyph glyph-name="uni010C" unicode="&#x010C;" d="M793 497L1070 480Q1055 258 929 118.50Q803-21 596-21Q344-21 212 166Q80 353 80 681Q80 1012 211 1199Q342 1386 600 1386Q1027 1386 1065 858L791 838Q780 1142 601 1142Q507 1142 451.50 1044Q396 946 396 664Q396 412 447 317.50Q498 223 600 223Q764 223 793 497M195 1758L413 1758L596 1639L779 1758L997 1758L596 1445L195 1758Z"  horiz-adv-x="1117" vert-adv-y="2048"  />

      
      <glyph glyph-name="uni010D" unicode="&#x010D;" d="M832 638L570 628Q564 721 540 768.50Q516 816 459 816Q317 816 317 518Q317 345 351.50 276Q386 207 454 207Q560 207 570 394L832 377Q797-21 436-21Q241-21 137.50 110.50Q34 242 34 502Q34 760 142.50 895Q251 1030 447 1030Q801 1030 832 638M56 1426L274 1426L457 1307L640 1426L858 1426L457 1113L56 1426Z"  horiz-adv-x="907" vert-adv-y="2048"  />

      
      <glyph glyph-name="uni0111" unicode="&#x0111;" d="M984 1111L875 1111L875 0L614 0L614 167Q550-14 384-14Q222-14 141.50 128.50Q61 271 61 501Q61 766 153 894.50Q245 1023 395 1023Q537 1023 598 916L598 1111L400 1111L400 1248L598 1248L598 1365L875 1365L875 1248L984 1248L984 1111M598 587Q598 736 566.50 786.50Q535 837 475 837Q404 837 378.50 767Q353 697 353 477Q353 313 381 247Q409 181 473 181Q527 181 562.50 225.50Q598 270 598 408L598 587Z"  horiz-adv-x="977" vert-adv-y="2048"  />

      
      <glyph glyph-name="uniad" unicode="&#xad;" d="M76 628L483 628L483 407L76 407L76 628Z"  horiz-adv-x="558" vert-adv-y="2048"  />

      
      <glyph glyph-name="uniaf" unicode="&#xaf;" d="M0 1664L1024 1664L1024 1482L0 1482L0 1664Z"  horiz-adv-x="1024" vert-adv-y="2048"  />

      
      <glyph glyph-name="unib7" unicode="&#xb7;" d="M122 677L401 677L401 374L122 375L122 677Z"  horiz-adv-x="523" vert-adv-y="2048"  />

      
      <glyph glyph-name="uni0100" unicode="&#x0100;" d="M370 1365L672 1365L1062 0L755 0L687 282L303 282L236 0L-40 0L370 1365M630 516L493 1073L360 516L630 516M229 1675L791 1675L791 1528L229 1528L229 1675Z"  horiz-adv-x="1047" vert-adv-y="2048"  />

      
      <glyph glyph-name="uni0101" unicode="&#x0101;" d="M374 689L107 715Q126 867 236.50 949Q347 1031 515 1031Q657 1031 743 976.50Q829 922 851.50 850Q874 778 874 627L874 224Q874 36 891 0L630 0Q616 41 616 155Q523-21 339-21Q221-21 147 49.50Q73 120 73 255Q73 424 185 516.50Q297 609 593 627L593 665Q593 766 572.50 805Q552 844 493 844Q385 844 374 689M593 483Q470 469 417.50 428.50Q365 388 365 292Q365 164 459 164Q510 164 551.50 221.50Q593 279 593 433L593 483M229 1343L791 1343L791 1196L229 1196L229 1343Z"  horiz-adv-x="977" vert-adv-y="2048"  />

      
      <glyph glyph-name="uni0102" unicode="&#x0102;" d="M370 1365L672 1365L1062 0L755 0L687 282L303 282L236 0L-40 0L370 1365M630 516L493 1073L360 516L630 516M179 1742L340 1742Q382 1637 510 1637Q637 1637 680 1742L841 1742Q770 1491 510 1491Q252 1491 179 1742Z"  horiz-adv-x="1047" vert-adv-y="2048"  />

      
      <glyph glyph-name="uni0103" unicode="&#x0103;" d="M374 689L107 715Q126 867 236.50 949Q347 1031 515 1031Q657 1031 743 976.50Q829 922 851.50 850Q874 778 874 627L874 224Q874 36 891 0L630 0Q616 41 616 155Q523-21 339-21Q221-21 147 49.50Q73 120 73 255Q73 424 185 516.50Q297 609 593 627L593 665Q593 766 572.50 805Q552 844 493 844Q385 844 374 689M593 483Q470 469 417.50 428.50Q365 388 365 292Q365 164 459 164Q510 164 551.50 221.50Q593 279 593 433L593 483M179 1401L340 1401Q382 1296 510 1296Q637 1296 680 1401L841 1401Q770 1150 510 1150Q252 1150 179 1401Z"  horiz-adv-x="977" vert-adv-y="2048"  />

      
      <glyph glyph-name="uni0104" unicode="&#x0104;" d="M806-198Q806-82 952 0L755 0L687 282L303 282L236 0L-40 0L370 1365L672 1365L1062 0Q968-87 968-165Q968-276 1105-276Q1149-276 1171-271L1193-368Q1126-385 1071-385Q937-385 871.50-332Q806-279 806-198M630 516L493 1073L360 516L630 516Z"  horiz-adv-x="1047" vert-adv-y="2048"  />

      
      <glyph glyph-name="uni0105" unicode="&#x0105;" d="M374 689L107 715Q126 868 237 949Q348 1030 512 1030Q648 1030 732 984.50Q816 939 845 865.50Q874 792 874 627L874 224Q874 36 891 0Q800-85 800-160Q800-267 931-267Q976-267 997-263L1018-357Q953-373 901-373Q768-373 705.50-321.50Q643-270 643-192Q643-80 784 0L630 0Q616 41 616 155Q523-21 339-21Q221-21 147 49.50Q73 120 73 255Q73 424 185 516.50Q297 609 593 627L593 665Q593 766 572.50 805Q552 844 493 844Q385 844 374 689M593 483Q470 469 417.50 428.50Q365 388 365 292Q365 164 459 164Q510 164 551.50 221.50Q593 279 593 433L593 483Z"  horiz-adv-x="977" vert-adv-y="2048"  />

      
      <glyph glyph-name="uni0108" unicode="&#x0108;" d="M793 497L1070 480Q1055 258 929 118.50Q803-21 596-21Q344-21 212 166Q80 353 80 681Q80 1012 211 1199Q342 1386 600 1386Q1027 1386 1065 858L791 838Q780 1142 601 1142Q507 1142 451.50 1044Q396 946 396 664Q396 412 447 317.50Q498 223 600 223Q764 223 793 497M195 1488L596 1801L997 1488L779 1488L596 1606L413 1488L195 1488Z"  horiz-adv-x="1117" vert-adv-y="2048"  />

      
      <glyph glyph-name="uni0109" unicode="&#x0109;" d="M858 638L596 628Q590 721 566 768.50Q542 816 485 816Q343 816 343 518Q343 345 377.50 276Q412 207 480 207Q586 207 596 394L858 377Q823-21 462-21Q267-21 163.50 110.50Q60 242 60 502Q60 760 168.50 895Q277 1030 473 1030Q827 1030 858 638M78 1132L479 1445L880 1132L662 1132L479 1250L296 1132L78 1132Z"  horiz-adv-x="907" vert-adv-y="2048"  />

      
      <glyph glyph-name="uni010A" unicode="&#x010A;" d="M793 497L1070 480Q1055 258 929 118.50Q803-21 596-21Q344-21 212 166Q80 353 80 681Q80 1012 211 1199Q342 1386 600 1386Q1027 1386 1065 858L791 838Q780 1142 601 1142Q507 1142 451.50 1044Q396 946 396 664Q396 412 447 317.50Q498 223 600 223Q764 223 793 497M465 1601Q465 1653 502.50 1689.50Q540 1726 592 1726Q645 1726 682.50 1689Q720 1652 720 1601Q720 1548 681.50 1512.50Q643 1477 593 1477Q542 1477 503.50 1512.50Q465 1548 465 1601Z"  horiz-adv-x="1117" vert-adv-y="2048"  />

      
      <glyph glyph-name="uni010B" unicode="&#x010B;" d="M858 638L596 628Q590 721 566 768.50Q542 816 485 816Q343 816 343 518Q343 345 377.50 276Q412 207 480 207Q586 207 596 394L858 377Q823-21 462-21Q267-21 163.50 110.50Q60 242 60 502Q60 760 168.50 895Q277 1030 473 1030Q827 1030 858 638M356 1269Q356 1321 393.50 1357.50Q431 1394 483 1394Q536 1394 573.50 1357Q611 1320 611 1269Q611 1216 572.50 1180.50Q534 1145 484 1145Q433 1145 394.50 1180.50Q356 1216 356 1269Z"  horiz-adv-x="907" vert-adv-y="2048"  />

      
      <glyph glyph-name="uni010E" unicode="&#x010E;" d="M129 1365L452 1365Q662 1365 793.50 1308.50Q925 1252 1004 1100Q1083 948 1083 689Q1083 505 1035 362.50Q987 220 909 138Q831 56 733 28Q635 0 488 0L129 0L129 1365M429 1131L429 235L480 235Q584 235 641 275Q698 315 732 414.50Q766 514 766 702Q766 876 728.50 970Q691 1064 634.50 1097.50Q578 1131 480 1131L429 1131M137 1758L355 1758L538 1639L721 1758L939 1758L538 1445L137 1758Z"  horiz-adv-x="1151" vert-adv-y="2048"  />

      
      <glyph glyph-name="uni010F" unicode="&#x010F;" d="M598 1365L875 1365L875 0L614 0L614 167Q550-14 384-14Q221-14 141 128Q61 270 61 501Q61 764 152.50 894Q244 1024 397 1024Q538 1024 598 916L598 1365M598 587Q598 736 566.50 786.50Q535 837 475 837Q404 837 378.50 767Q353 697 353 477Q353 313 381 247Q409 181 473 181Q527 181 562.50 225.50Q598 270 598 408L598 587M996 1365L1205 1365L1045 965L940 965L996 1365Z"  horiz-adv-x="1191" vert-adv-y="2048"  />

      
      <glyph glyph-name="uni0110" unicode="&#x0110;" d="M129 1365L452 1365Q663 1365 794.50 1308Q926 1251 1004.50 1098.50Q1083 946 1083 689Q1083 505 1035 362Q987 219 909 137.50Q831 56 733 28Q635 0 488 0L129 0L129 589L13 589L13 793L129 793L129 1365M429 1131L429 793L629 793L629 589L429 589L429 235L480 235Q584 235 641 274.50Q698 314 732.50 414.50Q767 515 767 702Q767 876 729 970Q691 1064 634 1097.50Q577 1131 480 1131L429 1131Z"  horiz-adv-x="1152" vert-adv-y="2048"  />

      
      <glyph glyph-name="uni0112" unicode="&#x0112;" d="M129 1365L959 1365L959 1131L429 1131L429 814L841 814L841 579L429 579L429 244L959 244L959 0L129 0L129 1365M262 1675L824 1675L824 1528L262 1528L262 1675Z"  horiz-adv-x="977" vert-adv-y="2048"  />

      
      <glyph glyph-name="uni0113" unicode="&#x0113;" d="M881 458L351 458L351 402Q351 266 388 220Q425 174 485 174Q614 174 630 347L881 331Q814-21 480-21Q274-21 167 118Q60 257 60 490Q60 753 173.50 891.50Q287 1030 478 1030Q650 1030 765.50 907.50Q881 785 881 458M615 621Q616 639 616 649Q616 844 484 844Q354 844 353 621L615 621M210 1343L772 1343L772 1196L210 1196L210 1343Z"  horiz-adv-x="942" vert-adv-y="2048"  />

      
      <glyph glyph-name="uni0114" unicode="&#x0114;" d="M129 1365L959 1365L959 1131L429 1131L429 814L841 814L841 579L429 579L429 244L959 244L959 0L129 0L129 1365M212 1742L373 1742Q415 1637 543 1637Q670 1637 713 1742L874 1742Q803 1491 543 1491Q285 1491 212 1742Z"  horiz-adv-x="977" vert-adv-y="2048"  />

      
      <glyph glyph-name="uni0115" unicode="&#x0115;" d="M881 458L351 458L351 402Q351 266 388 220Q425 174 485 174Q614 174 630 347L881 331Q814-21 480-21Q274-21 167 118Q60 257 60 490Q60 753 173.50 891.50Q287 1030 478 1030Q650 1030 765.50 907.50Q881 785 881 458M615 621Q616 639 616 649Q616 844 484 844Q354 844 353 621L615 621M160 1401L321 1401Q363 1296 491 1296Q618 1296 661 1401L822 1401Q751 1150 491 1150Q233 1150 160 1401Z"  horiz-adv-x="942" vert-adv-y="2048"  />

      
      <glyph glyph-name="uni0116" unicode="&#x0116;" d="M129 1365L959 1365L959 1131L429 1131L429 814L841 814L841 579L429 579L429 244L959 244L959 0L129 0L129 1365M417 1601Q417 1653 454.50 1689.50Q492 1726 544 1726Q597 1726 634.50 1689Q672 1652 672 1601Q672 1548 633.50 1512.50Q595 1477 545 1477Q494 1477 455.50 1512.50Q417 1548 417 1601Z"  horiz-adv-x="977" vert-adv-y="2048"  />

      
      <glyph glyph-name="uni0117" unicode="&#x0117;" d="M881 458L351 458L351 402Q351 266 388 220Q425 174 485 174Q614 174 630 347L881 331Q814-21 480-21Q274-21 167 118Q60 257 60 490Q60 753 173.50 891.50Q287 1030 478 1030Q650 1030 765.50 907.50Q881 785 881 458M615 621Q616 639 616 649Q616 844 484 844Q354 844 353 621L615 621M363 1269Q363 1321 400.50 1357.50Q438 1394 490 1394Q543 1394 580.50 1357Q618 1320 618 1269Q618 1216 579.50 1180.50Q541 1145 491 1145Q440 1145 401.50 1180.50Q363 1216 363 1269Z"  horiz-adv-x="942" vert-adv-y="2048"  />

      
      <glyph glyph-name="uni0118" unicode="&#x0118;" d="M129 1365L959 1365L959 1131L429 1131L429 814L841 814L841 579L429 579L429 244L959 244L959 0Q866-87 866-165Q866-276 1002-276Q1047-276 1069-271L1091-368Q1025-385 968-385Q835-385 769.50-331.50Q704-278 704-198Q704-82 850 0L129 0L129 1365Z"  horiz-adv-x="977" vert-adv-y="2048"  />

      
      <glyph glyph-name="uni0119" unicode="&#x0119;" d="M821-249L842-343Q778-359 725-359Q592-359 529.50-307.50Q467-256 467-178Q467-79 575-12Q527-22 500-22Q265-22 162.50 123.50Q60 269 60 490Q60 753 173.50 891.50Q287 1030 478 1030Q667 1030 774 897Q881 764 881 458L351 458L351 402Q351 266 388 220Q425 174 485 174Q614 174 630 347L881 331Q859 230 828.50 174Q798 118 726 47Q625-53 625-144Q625-253 753-253Q807-253 821-249M615 621Q616 639 616 649Q616 844 484 844Q354 844 353 621L615 621Z"  horiz-adv-x="942" vert-adv-y="2048"  />

      
      <glyph glyph-name="uni011A" unicode="&#x011A;" d="M129 1365L959 1365L959 1131L429 1131L429 814L841 814L841 579L429 579L429 244L959 244L959 0L129 0L129 1365M143 1758L361 1758L544 1639L727 1758L945 1758L544 1445L143 1758Z"  horiz-adv-x="977" vert-adv-y="2048"  />

      
      <glyph glyph-name="uni011B" unicode="&#x011B;" d="M881 458L351 458L351 402Q351 266 388 220Q425 174 485 174Q614 174 630 347L881 331Q814-21 480-21Q274-21 167 118Q60 257 60 490Q60 753 173.50 891.50Q287 1030 478 1030Q650 1030 765.50 907.50Q881 785 881 458M615 621Q616 639 616 649Q616 844 484 844Q354 844 353 621L615 621M90 1426L308 1426L491 1307L674 1426L892 1426L491 1113L90 1426Z"  horiz-adv-x="942" vert-adv-y="2048"  />

      
      </font>
</defs>
</svg>
